<svg width="22" height="22" viewBox="0 0 22 22" fill="none" xmlns="http://www.w3.org/2000/svg">
    <path
        d="M7.20086 10.8C7.20086 8.81185 8.8122 7.19971 10.8004 7.19971C12.7887 7.19971 14.4009 8.81185 14.4009 10.8C14.4009 12.7882 12.7887 14.4003 10.8004 14.4003C8.8122 14.4003 7.20086 12.7882 7.20086 10.8ZM5.25454 10.8C5.25454 13.8629 7.73743 16.3457 10.8004 16.3457C13.8634 16.3457 16.3463 13.8629 16.3463 10.8C16.3463 7.73712 13.8634 5.25433 10.8004 5.25433C7.73743 5.25433 5.25454 7.73712 5.25454 10.8ZM15.2698 5.03444C15.2697 5.29077 15.3456 5.54137 15.488 5.75455C15.6303 5.96773 15.8326 6.13392 16.0694 6.23211C16.3062 6.3303 16.5668 6.35606 16.8182 6.30616C17.0696 6.25625 17.3006 6.13291 17.482 5.95174C17.6633 5.77056 17.7868 5.53969 17.8369 5.28831C17.887 5.03693 17.8615 4.77633 17.7635 4.53948C17.6655 4.30263 17.4994 4.10016 17.2864 3.95766C17.0733 3.81517 16.8227 3.73906 16.5664 3.73896H16.5659C16.2223 3.73912 15.8928 3.87564 15.6498 4.11854C15.4068 4.36144 15.2701 4.69086 15.2698 5.03444V5.03444ZM6.43706 19.5909C5.38406 19.543 4.81172 19.3676 4.43137 19.2194C3.92712 19.0231 3.56734 18.7893 3.18907 18.4116C2.81079 18.0338 2.57664 17.6744 2.38119 17.1702C2.23292 16.79 2.05753 16.2175 2.00966 15.1646C1.9573 14.0262 1.94684 13.6842 1.94684 10.8001C1.94684 7.91597 1.95816 7.57495 2.00966 6.43559C2.05761 5.38263 2.23431 4.81127 2.38119 4.42999C2.5775 3.92576 2.81131 3.56599 3.18907 3.18773C3.56682 2.80947 3.92626 2.57533 4.43137 2.37989C4.81155 2.23163 5.38406 2.05623 6.43706 2.00837C7.57551 1.95601 7.91749 1.94556 10.8004 1.94556C13.6834 1.94556 14.0257 1.95687 15.1651 2.00837C16.2181 2.05632 16.7895 2.23301 17.1708 2.37989C17.675 2.57533 18.0348 2.80999 18.4131 3.18773C18.7914 3.56547 19.0247 3.92576 19.221 4.42999C19.3692 4.81015 19.5446 5.38263 19.5925 6.43559C19.6449 7.57495 19.6553 7.91597 19.6553 10.8001C19.6553 13.6842 19.6449 14.0252 19.5925 15.1646C19.5445 16.2175 19.3683 16.7899 19.221 17.1702C19.0247 17.6744 18.7909 18.0342 18.4131 18.4116C18.0353 18.789 17.675 19.0231 17.1708 19.2194C16.7906 19.3677 16.2181 19.5431 15.1651 19.5909C14.0267 19.6433 13.6847 19.6538 10.8004 19.6538C7.9162 19.6538 7.57516 19.6433 6.43706 19.5909V19.5909ZM6.34763 0.0654048C5.19786 0.117763 4.41219 0.300067 3.72606 0.567043C3.01548 0.842746 2.41394 1.21262 1.81283 1.81276C1.21172 2.41289 0.842779 3.01536 0.567066 3.72591C0.300079 4.41245 0.117768 5.19765 0.0654074 6.34738C0.0121829 7.49892 0 7.86707 0 10.8C0 13.7329 0.0121829 14.1011 0.0654074 15.2526C0.117768 16.4024 0.300079 17.1876 0.567066 17.8741C0.842779 18.5842 1.21181 19.1874 1.81283 19.7872C2.41385 20.3871 3.01548 20.7565 3.72606 21.033C4.41349 21.2999 5.19786 21.4822 6.34763 21.5346C7.49982 21.587 7.86738 21.6 10.8004 21.6C13.7335 21.6 14.1016 21.5878 15.2532 21.5346C16.4031 21.4822 17.1882 21.2999 17.8748 21.033C18.585 20.7565 19.1869 20.3874 19.788 19.7872C20.3891 19.1871 20.7573 18.5842 21.0338 17.8741C21.3008 17.1876 21.484 16.4023 21.5355 15.2526C21.5878 14.1002 21.6 13.7329 21.6 10.8C21.6 7.86707 21.5878 7.49892 21.5355 6.34738C21.4831 5.19757 21.3008 4.41202 21.0338 3.72591C20.7573 3.01579 20.3882 2.41384 19.788 1.81276C19.1879 1.21167 18.585 0.842746 17.8757 0.567043C17.1882 0.300067 16.403 0.116899 15.2541 0.0654048C14.1025 0.0130464 13.7343 0 10.8013 0C7.86824 0 7.49982 0.0121824 6.34763 0.0654048Z"
        fill="white" />
</svg>
    