<svg width="22" height="22" viewBox="0 0 22 22" fill="none" xmlns="http://www.w3.org/2000/svg">
    <path fill-rule="evenodd" clip-rule="evenodd"
        d="M21.6 21.6C21.6 9.68991 11.9102 0 0.000240326 0V4.11403C9.64222 4.11403 17.486 11.9579 17.486 21.6H21.6ZM0 18.5134C0 20.2175 1.38161 21.5992 3.08568 21.5992C4.78975 21.5992 6.17136 20.2175 6.17136 18.5134C6.17136 16.8094 4.78975 15.4277 3.08568 15.4277C1.38161 15.4277 0 16.8094 0 18.5134ZM0 7.19922C7.94023 7.19922 14.4001 13.6592 14.4001 21.5995H10.2861C10.2861 15.9279 5.67148 11.314 0 11.314V7.19922Z"
        fill="white" />
</svg>
    