<svg width="26" height="22" viewBox="0 0 26 22" fill="none" xmlns="http://www.w3.org/2000/svg">
    <path fill-rule="evenodd" clip-rule="evenodd"
        d="M19.0588 21.4907C20.563 22.1488 21.1271 20.7699 21.1271 20.7699L25.1069 0.776844C25.0756 -0.570651 23.258 0.244114 23.258 0.244114L0.977325 8.98717C0.977325 8.98717 -0.0881368 9.36321 0.00587454 10.0213C0.0998859 10.6794 0.945988 10.9927 0.945988 10.9927L6.55533 12.873C6.55533 12.873 8.24754 18.4196 8.59224 19.4851C8.90561 20.5192 9.18765 20.5506 9.18765 20.5506C9.50102 20.6759 9.78305 20.4566 9.78305 20.4566L13.4182 17.1662L19.0588 21.4907ZM20.0309 4.31844C20.0309 4.31844 20.8143 3.84838 20.783 4.31844C20.783 4.31844 20.9084 4.38111 20.501 4.81983C20.1249 5.19587 11.2565 13.1555 10.0657 14.221C9.9717 14.2836 9.90903 14.3776 9.90903 14.503L9.56432 17.4487C9.50165 17.7621 9.09426 17.7934 9.00025 17.5114L7.52741 12.6854C7.46474 12.4974 7.52741 12.2781 7.71543 12.1527L20.0309 4.31844Z"
        fill="white" />
</svg>
    