<svg xmlns="http://www.w3.org/2000/svg" width="24" height="24" viewBox="0 0 24 24" fill="none">
    <path
        fill-rule="evenodd"
        clip-rule="evenodd"
        d="M4.50708 6.75046C4.50708 4.30376 6.45163 2.32031 8.85036 2.32031C11.2491 2.32031 13.1936 4.30376 13.1936 6.75046C13.1936 9.19716 11.2491 11.1806 8.85036 11.1806C6.45163 11.1806 4.50708 9.19716 4.50708 6.75046Z"
        stroke="white"
    />
    <path
        d="M16.3553 10.4577C15.6375 10.4577 14.9704 10.2366 14.4157 9.8575C14.9116 8.93531 15.1936 7.87648 15.1936 6.75046C15.1936 5.71389 14.9546 4.73425 14.5298 3.86574C15.0609 3.53251 15.6861 3.34031 16.3553 3.34031C18.2822 3.34031 19.8442 4.93359 19.8442 6.89899C19.8442 8.8644 18.2822 10.4577 16.3553 10.4577Z"
        stroke="white"
    />
    <path
        d="M14.1233 12.6397C16.0484 13.8585 17.397 15.935 17.6561 18.3457H20.1778C21.0246 18.3457 21.7111 17.6454 21.7111 16.7817C21.7111 14.4157 19.8307 12.4977 17.5111 12.4977H15.2C14.8278 12.4977 14.4669 12.547 14.1233 12.6397Z"
        stroke="white"
    />
    <path
        fill-rule="evenodd"
        clip-rule="evenodd"
        d="M8.14286 12.5203C4.75025 12.5203 2 15.3256 2 18.786C2 19.8322 2.83147 20.6803 3.85714 20.6803H14.1429C15.1685 20.6803 16 19.8322 16 18.786C16 15.3256 13.2498 12.5203 9.85714 12.5203H8.14286Z"
        stroke="white"
    />
</svg>