<svg width="17" height="22" viewBox="0 0 17 22" fill="none" xmlns="http://www.w3.org/2000/svg">
<g id="Group 6">
<path id="Vector" d="M8.38046 10.6278C9.72749 10.6278 10.8939 10.1446 11.847 9.19144C12.8 8.23839 13.2831 7.07228 13.2831 5.7251C13.2831 4.37838 12.8 3.21212 11.8468 2.25877C10.8936 1.30588 9.72734 0.822754 8.38046 0.822754C7.03327 0.822754 5.86716 1.30588 4.91411 2.25892C3.96106 3.21197 3.47778 4.37823 3.47778 5.7251C3.47778 7.07228 3.96106 8.23855 4.91427 9.19159C5.86747 10.1445 7.03374 10.6278 8.38046 10.6278Z" fill="#5EF4EB"/>
<path id="Vector_2" d="M16.9589 16.4746C16.9314 16.078 16.8758 15.6453 16.7939 15.1885C16.7113 14.7282 16.6049 14.293 16.4776 13.8953C16.3461 13.4843 16.1672 13.0783 15.946 12.6893C15.7165 12.2855 15.4469 11.9339 15.1444 11.6446C14.828 11.342 14.4407 11.0986 13.9929 10.9211C13.5465 10.7445 13.0519 10.6551 12.5228 10.6551C12.3151 10.6551 12.1141 10.7403 11.726 10.993C11.4872 11.1488 11.2078 11.3289 10.896 11.5282C10.6293 11.6981 10.2681 11.8572 9.82194 12.0013C9.38664 12.1422 8.94467 12.2136 8.50845 12.2136C8.07222 12.2136 7.63041 12.1422 7.19465 12.0013C6.74895 11.8574 6.38773 11.6982 6.1214 11.5283C5.81252 11.3309 5.53299 11.1508 5.29057 10.9929C4.90295 10.7402 4.70184 10.6549 4.49406 10.6549C3.96481 10.6549 3.47035 10.7445 3.02419 10.9213C2.57663 11.0985 2.18916 11.3418 1.87252 11.6448C1.57016 11.9343 1.30041 12.2857 1.07119 12.6893C0.850206 13.0783 0.671306 13.4841 0.539615 13.8955C0.412428 14.2932 0.306051 14.7282 0.223433 15.1885C0.141593 15.6447 0.085997 16.0775 0.0585097 16.4751C0.0314883 16.8646 0.0178223 17.2688 0.0178223 17.6771C0.0178223 18.7396 0.35559 19.5998 1.02165 20.2341C1.67948 20.8601 2.54992 21.1777 3.60841 21.1777H13.4094C14.4679 21.1777 15.338 20.8603 15.996 20.2341C16.6622 19.6002 17 18.7399 17 17.6769C16.9998 17.2668 16.986 16.8622 16.9589 16.4746Z" fill="#5EF4EB"/>
</g>
</svg>
