<svg xmlns="http://www.w3.org/2000/svg" width="20" height="17" viewBox="0 0 20 17" fill="none">
    <path
        d="M7.69449 11.5271C7.69449 12.7983 8.72869 13.8325 9.99988 13.8325C11.2711 13.8325 12.3053 12.7983 12.3053 11.5271C12.3053 10.2559 11.2711 9.22168 9.99988 9.22168C8.72869 9.22168 7.69449 10.2559 7.69449 11.5271ZM10.7683 11.5271C10.7683 11.9508 10.4236 12.2955 9.99988 12.2955C9.57615 12.2955 9.23142 11.9508 9.23142 11.5271C9.23142 11.1033 9.57615 10.7586 9.99988 10.7586C10.4236 10.7586 10.7683 11.1033 10.7683 11.5271Z"
        fill="#5EF4EB" />
    <path
        d="M9.99988 3.07385C10.4243 3.07385 10.7683 2.72981 10.7683 2.30539V0.768463C10.7683 0.344041 10.4243 0 9.99988 0C9.57546 0 9.23141 0.344041 9.23141 0.768463V2.30539C9.23141 2.72981 9.57546 3.07385 9.99988 3.07385Z"
        fill="white" />
    <path
        d="M4.02265 5.09979C4.32274 5.39987 4.80929 5.39991 5.10942 5.09979C5.40954 4.79966 5.40954 4.31311 5.10942 4.01303L4.02265 2.92626C3.72253 2.62614 3.23598 2.62614 2.93589 2.92626C2.63581 3.22639 2.63577 3.71294 2.93589 4.01303L4.02265 5.09979Z"
        fill="white" />
    <path
        d="M15.9771 5.09977L17.0639 4.01301C17.364 3.71289 17.364 3.22633 17.0639 2.92625C16.7637 2.62617 16.2772 2.62613 15.9771 2.92625L14.8903 4.01301C14.5902 4.31313 14.5902 4.79969 14.8903 5.09977C15.1905 5.39986 15.677 5.39986 15.9771 5.09977Z"
        fill="white" />
    <path
        d="M19.6498 11.0249C19.6067 10.9749 18.5752 9.78721 16.8873 8.59386C14.6237 6.99339 12.242 6.14746 9.9999 6.14746C7.75775 6.14746 5.37609 6.99342 3.1125 8.59383C1.42461 9.78717 0.393066 10.9749 0.349994 11.0249C0.101434 11.3133 0.101434 11.7401 0.349994 12.0285C0.393066 12.0785 1.42461 13.2662 3.11247 14.4595C5.37609 16.06 7.75771 16.9059 9.9999 16.9059C12.2421 16.9059 14.6237 16.06 16.8873 14.4596C18.5751 13.2662 19.6067 12.0785 19.6498 12.0285C19.8984 11.7401 19.8984 11.3133 19.6498 11.0249ZM13.8422 11.5267C13.8422 13.6438 12.1199 15.369 9.9999 15.369C7.88297 15.369 6.15758 13.6468 6.15758 11.5267C6.15758 9.40963 7.87986 7.68439 9.9999 7.68439C12.1168 7.68439 13.8422 9.40655 13.8422 11.5267ZM1.99466 11.5267C2.4263 11.101 3.13006 10.4603 4.03136 9.82648C4.37862 9.58226 4.77427 9.32629 5.2101 9.07969C4.83336 9.81418 4.62065 10.646 4.62065 11.5267C4.62065 12.4074 4.83336 13.2392 5.2101 13.9737C4.77427 13.7271 4.37862 13.4711 4.03136 13.2269C3.13006 12.5931 2.42623 11.9523 1.99466 11.5267ZM15.9684 13.2269C15.6212 13.4711 15.2255 13.7271 14.7897 13.9737C15.1664 13.2392 15.3791 12.4073 15.3791 11.5267C15.3791 10.6461 15.1664 9.81418 14.7897 9.07973C15.2255 9.32629 15.6212 9.58226 15.9684 9.82652C16.8697 10.4604 17.5734 11.101 18.0051 11.5267C17.5734 11.9524 16.8697 12.5931 15.9684 13.2269Z"
        fill="white" />
</svg>