<svg xmlns="http://www.w3.org/2000/svg" width="19" height="19" viewBox="0 0 19 19" fill="none">
    <path
        d="M15.7511 7.84715C15.7735 5.21074 13.5281 2.79385 10.7456 2.45964C10.6903 2.45307 10.63 2.44308 10.5662 2.43251C10.4284 2.40969 10.286 2.38623 10.1422 2.38623C9.57195 2.38623 9.41951 2.78682 9.37938 3.02573C9.34036 3.25803 9.37758 3.45309 9.48984 3.60577C9.67869 3.86257 10.011 3.90816 10.2779 3.94468C10.3561 3.95549 10.4299 3.96553 10.4917 3.97941C12.9917 4.53802 13.8334 5.41626 14.2448 7.89494C14.2549 7.95551 14.2594 8.03014 14.2642 8.10929C14.2822 8.40558 14.3196 9.02203 14.9823 9.02203H14.9823C15.0375 9.02203 15.0968 9.01727 15.1585 9.00786C15.7757 8.91407 15.7563 8.35059 15.7471 8.07985C15.7444 8.0036 15.7419 7.93147 15.7484 7.8835C15.7501 7.87142 15.751 7.85929 15.7511 7.84715Z"
        fill="#5EF4EB" />
    <path
        d="M9.98033 1.49179C10.0544 1.49713 10.1245 1.50224 10.1828 1.51118C14.288 2.1425 16.1759 4.08749 16.6991 8.22474C16.7079 8.29507 16.7093 8.38084 16.7108 8.47167C16.716 8.7949 16.7268 9.46733 17.4489 9.48127L17.4713 9.4815C17.6978 9.4815 17.8779 9.41321 18.0068 9.27836C18.2316 9.04322 18.2159 8.69391 18.2033 8.41319C18.2002 8.34431 18.1972 8.27944 18.198 8.22265C18.2502 3.99132 14.5875 0.154359 10.36 0.0116727C10.3424 0.011092 10.3257 0.0120212 10.3088 0.0144022C10.3005 0.0156217 10.2851 0.0171316 10.2587 0.0171316C10.2166 0.0171316 10.1647 0.013473 10.1097 0.0097563C10.0432 0.00522659 9.96785 0 9.89142 0C9.21818 0 9.09019 0.478524 9.07381 0.763779C9.03606 1.42303 9.67382 1.46943 9.98033 1.49179Z"
        fill="#5EF4EB" />
    <path
        d="M16.501 13.5719C16.4137 13.5052 16.3235 13.4363 16.239 13.3682C15.7908 13.0075 15.314 12.675 14.8528 12.3535C14.7571 12.2868 14.6614 12.2201 14.566 12.1532C13.9753 11.7382 13.4442 11.5366 12.9425 11.5366C12.2667 11.5366 11.6775 11.91 11.1912 12.6463C10.9757 12.9728 10.7143 13.1315 10.3922 13.1315C10.2017 13.1315 9.98527 13.0771 9.74897 12.9699C7.84225 12.1052 6.48072 10.7795 5.70213 9.02959C5.32576 8.18382 5.44777 7.63096 6.11016 7.18101C6.4863 6.92572 7.18643 6.45045 7.13683 5.54032C7.08068 4.50679 4.80026 1.39703 3.83943 1.04383C3.43263 0.894231 3.00521 0.892837 2.56676 1.04034C1.46221 1.41166 0.669565 2.06377 0.274318 2.92604C-0.10763 3.75922 -0.0903818 4.73752 0.324203 5.75519C1.52272 8.69753 3.20777 11.2629 5.33273 13.3798C7.41268 15.4521 9.96912 17.1496 12.931 18.4249C13.1979 18.5398 13.478 18.6024 13.6824 18.6482C13.7521 18.6638 13.8123 18.6772 13.8561 18.6892C13.8802 18.6958 13.9051 18.6993 13.93 18.6995L13.9534 18.6997C13.9534 18.6997 13.9534 18.6997 13.9535 18.6997C15.3466 18.6997 17.0193 17.4267 17.533 15.9754C17.9831 14.7047 17.1613 14.0766 16.501 13.5719Z"
        fill="white" />
    <path
        d="M10.5965 4.85305C10.358 4.85909 9.86166 4.8714 9.6875 5.37693C9.60602 5.61317 9.61578 5.81828 9.71653 5.98658C9.86439 6.23351 10.1477 6.30918 10.4053 6.3507C11.3398 6.50064 11.8197 7.01738 11.9157 7.97675C11.9603 8.42409 12.2615 8.73646 12.6483 8.73646C12.6769 8.73646 12.7061 8.73478 12.7352 8.73124C13.2004 8.67589 13.4259 8.33413 13.4055 7.71554C13.413 7.06993 13.0751 6.33699 12.5004 5.75318C11.9238 5.16757 11.2288 4.83777 10.5965 4.85305Z"
        fill="#5EF4EB" />
</svg>