<svg xmlns="http://www.w3.org/2000/svg" width="16" height="16" viewBox="0 0 16 16" fill="none">
    <path
        d="M14.1015 11.08C16.6328 8.54864 16.6327 4.42983 14.1015 1.8985C11.5702 -0.632833 7.45139 -0.632833 4.92011 1.8985C2.77262 4.04599 2.44738 7.23986 3.94353 9.73392C3.94353 9.73392 4.05099 9.91422 3.90585 10.0593C3.07781 10.8873 0.593535 13.3716 0.593535 13.3716C-0.0657528 14.0308 -0.222701 14.9527 0.361952 15.5374L0.462615 15.638C1.04727 16.2227 1.96917 16.0658 2.6284 15.4065C2.6284 15.4065 5.10742 12.9275 5.93376 12.1012C6.08586 11.9491 6.26611 12.0566 6.26611 12.0566C8.76012 13.5526 11.954 13.2275 14.1015 11.08ZM6.1187 9.88134C4.2483 8.01094 4.24835 4.96763 6.11875 3.09724C7.98914 1.22689 11.0325 1.22684 12.9028 3.09724C14.7732 4.96758 14.7732 8.01094 12.9028 9.88134C11.0324 11.7516 7.98914 11.7516 6.1187 9.88134Z"
        fill="white" />
    <path
        d="M6.53284 6.10386C6.44579 6.10386 6.35729 6.08675 6.27198 6.05072C5.93123 5.9065 5.77181 5.51333 5.91603 5.17253C6.82246 3.03045 9.30256 2.0252 11.4446 2.93164C11.7853 3.07586 11.9448 3.46903 11.8005 3.80983C11.6563 4.15063 11.2632 4.30995 10.9223 4.16579C9.46085 3.54737 7.76859 4.23326 7.15023 5.69471C7.04204 5.95031 6.79391 6.10386 6.53284 6.10386Z"
        fill="#5EF4EB" />
</svg>