<svg width="158" height="47" viewBox="0 0 158 47" fill="none" xmlns="http://www.w3.org/2000/svg">
<g id="Mobile app store badge">
<rect x="0.580752" y="0.580752" width="155.874" height="45.2987" rx="5.22677" stroke="white" stroke-width="1.1615"/>
<path id="Google Play" d="M79.2579 25.264C76.522 25.264 74.2921 27.3419 74.2921 30.2039C74.2921 33.0484 76.522 35.1438 79.2579 35.1438C81.9949 35.1438 84.2248 33.0484 84.2248 30.2039C84.2237 27.3419 81.9938 25.264 79.2579 25.264ZM79.2579 33.1994C77.7585 33.1994 76.4661 31.9647 76.4661 30.205C76.4661 28.4268 77.7596 27.2107 79.2579 27.2107C80.7573 27.2107 82.0496 28.4268 82.0496 30.205C82.0496 31.9636 80.7573 33.1994 79.2579 33.1994ZM68.4236 25.264C65.6877 25.264 63.4578 27.3419 63.4578 30.2039C63.4578 33.0484 65.6877 35.1438 68.4236 35.1438C71.1607 35.1438 73.3906 33.0484 73.3906 30.2039C73.3906 27.3419 71.1607 25.264 68.4236 25.264ZM68.4236 33.1994C66.9242 33.1994 65.6319 31.9647 65.6319 30.205C65.6319 28.4268 66.9254 27.2107 68.4236 27.2107C69.923 27.2107 71.2153 28.4268 71.2153 30.205C71.2165 31.9636 69.923 33.1994 68.4236 33.1994ZM55.5374 26.7809V28.8763H60.5602C60.4101 30.0552 60.017 30.9159 59.4167 31.5141C58.6862 32.2435 57.5428 33.0484 55.5374 33.0484C52.4455 33.0484 50.0284 30.5593 50.0284 27.472C50.0284 24.3848 52.4455 21.8956 55.5374 21.8956C57.2055 21.8956 58.4234 22.5507 59.3225 23.3928L60.8033 21.9142C59.547 20.7167 57.8801 19.8003 55.5374 19.8003C51.3021 19.8003 47.7415 23.243 47.7415 27.472C47.7415 31.7011 51.3021 35.1438 55.5374 35.1438C57.8231 35.1438 59.5482 34.3946 60.8964 32.9915C62.2829 31.607 62.7145 29.6603 62.7145 28.0888C62.7145 27.6033 62.6773 27.1538 62.6017 26.7798H55.5374V26.7809ZM108.241 28.4082C107.829 27.3048 106.573 25.264 104.005 25.264C101.457 25.264 99.3386 27.2664 99.3386 30.2039C99.3386 32.9729 101.438 35.1438 104.249 35.1438C106.516 35.1438 107.828 33.7593 108.372 32.9543L106.686 31.8312C106.124 32.6547 105.355 33.1971 104.249 33.1971C103.144 33.1971 102.356 32.6918 101.85 31.6999L108.465 28.968L108.241 28.4082ZM101.494 30.0552C101.438 28.1457 102.975 27.1735 104.081 27.1735C104.943 27.1735 105.674 27.6044 105.918 28.2212L101.494 30.0552ZM96.1165 34.8453H98.2894V20.3253H96.1165V34.8453ZM92.5547 26.3686H92.4803C91.9929 25.7878 91.0553 25.264 89.8758 25.264C87.4016 25.264 85.1345 27.4349 85.1345 30.2236C85.1345 32.9927 87.4016 35.1449 89.8758 35.1449C91.0565 35.1449 91.9929 34.6211 92.4803 34.0229H92.5547V34.7338C92.5547 36.6235 91.5427 37.634 89.913 37.634C88.5823 37.634 87.7576 36.6804 87.4202 35.8755L85.5277 36.6618C86.0709 37.9709 87.5133 39.5807 89.913 39.5807C92.4616 39.5807 94.6171 38.0835 94.6171 34.4341V25.5648H92.5559V26.3686H92.5547ZM90.0631 33.1994C88.5637 33.1994 87.3086 31.945 87.3086 30.2236C87.3086 28.4825 88.5637 27.2107 90.0631 27.2107C91.5427 27.2107 92.7048 28.4825 92.7048 30.2236C92.7048 31.945 91.5427 33.1994 90.0631 33.1994ZM118.424 20.3253H113.223V34.8453H115.392V29.3444H118.423C120.828 29.3444 123.194 27.6056 123.194 24.8354C123.194 22.0652 120.829 20.3253 118.424 20.3253ZM118.479 27.3234H115.392V22.3463H118.479C120.102 22.3463 121.023 23.6878 121.023 24.8354C121.023 25.9598 120.102 27.3234 118.479 27.3234ZM131.894 25.2385C130.322 25.2385 128.695 25.9296 128.021 27.4616L129.948 28.2642C130.36 27.4616 131.127 27.1991 131.931 27.1991C133.054 27.1991 134.195 27.8716 134.213 29.0668V29.2166C133.82 28.9924 132.978 28.6568 131.95 28.6568C129.873 28.6568 127.759 29.7962 127.759 31.9252C127.759 33.8684 129.462 35.1194 131.369 35.1194C132.828 35.1194 133.633 34.4654 134.138 33.6989H134.212V34.8197H136.308V29.2526C136.309 26.6764 134.381 25.2385 131.894 25.2385ZM131.631 33.1959C130.921 33.1959 129.929 32.8405 129.929 31.9624C129.929 30.8416 131.164 30.4118 132.231 30.4118C133.184 30.4118 133.634 30.6174 134.213 30.8973C134.045 32.2435 132.885 33.1959 131.631 33.1959ZM143.941 25.5555L141.453 31.8509H141.379L138.796 25.5555H136.458L140.331 34.3539L138.123 39.2485H140.387L146.355 25.5555H143.941ZM124.392 34.8453H126.562V20.3253H124.392V34.8453Z" fill="white"/>
<g id="Get it on">
<path d="M55.1577 11.8971C55.1577 12.8705 54.8692 13.6452 54.2911 14.2236C53.635 14.9112 52.7789 15.2551 51.7273 15.2551C50.72 15.2551 49.8627 14.9066 49.1589 14.2097C48.454 13.5116 48.1016 12.6475 48.1016 11.6161C48.1016 10.5835 48.454 9.71932 49.1589 9.02242C49.8627 8.32435 50.72 7.9759 51.7273 7.9759C52.2275 7.9759 52.7056 8.07347 53.1593 8.26744C53.6141 8.46257 53.9782 8.72159 54.2504 9.04565L53.6374 9.65892C53.1755 9.10721 52.5393 8.83193 51.7262 8.83193C50.991 8.83193 50.3559 9.08978 49.8196 9.60549C49.2834 10.1212 49.0159 10.7914 49.0159 11.6149C49.0159 12.4384 49.2834 13.1086 49.8196 13.6243C50.3559 14.14 50.991 14.3979 51.7262 14.3979C52.5055 14.3979 53.1558 14.1388 53.6757 13.6197C54.0131 13.2817 54.2085 12.8112 54.2608 12.2084H51.7262V11.371H55.1077C55.1426 11.5533 55.1577 11.7287 55.1577 11.8971Z" fill="white"/>
<path d="M60.5203 8.98648H57.3423V11.1957H60.2085V12.0331H57.3423V14.2423H60.5203V15.0995H56.4455V8.13045H60.5203V8.98648Z" fill="white"/>
<path d="M64.3018 15.0995H63.4049V8.98648H61.4554V8.13045H66.2513V8.98648H64.3018V15.0995Z" fill="white"/>
<path d="M69.7212 15.0995V8.13045H70.618V15.0995H69.7212Z" fill="white"/>
<path d="M74.5953 15.0995H73.6985V8.98648H71.7489V8.13045H76.5449V8.98648H74.5953V15.0995Z" fill="white"/>
<path d="M85.6236 14.1993C84.9373 14.9032 84.0846 15.2551 83.0645 15.2551C82.0443 15.2551 81.1917 14.9032 80.5065 14.1993C79.8202 13.4954 79.4783 12.6336 79.4783 11.6149C79.4783 10.5963 79.8202 9.73447 80.5065 9.0306C81.1917 8.32673 82.0443 7.97363 83.0645 7.97363C84.0788 7.97363 84.9303 8.32789 85.6189 9.03525C86.3076 9.7426 86.6519 10.6021 86.6519 11.6149C86.6519 12.6336 86.3087 13.4954 85.6236 14.1993ZM81.1684 13.6151C81.6849 14.1377 82.3165 14.3979 83.0645 14.3979C83.8124 14.3979 84.4452 14.1366 84.9605 13.6151C85.477 13.0924 85.7364 12.4257 85.7364 11.6149C85.7364 10.8042 85.477 10.1375 84.9605 9.61484C84.4452 9.09216 83.8124 8.83198 83.0645 8.83198C82.3165 8.83198 81.6849 9.09332 81.1684 9.61484C80.6531 10.1375 80.3937 10.8042 80.3937 11.6149C80.3937 12.4257 80.6531 13.0924 81.1684 13.6151Z" fill="white"/>
<path d="M87.9105 15.0995V8.13045H89.0016L92.3936 13.5512H92.432L92.3936 12.2085V8.13045H93.2904V15.0995H92.354L88.805 9.41507H88.7666L88.805 10.7578V15.0995H87.9105Z" fill="white"/>
<path d="M55.1577 11.8971C55.1577 12.8705 54.8692 13.6452 54.2911 14.2236C53.635 14.9112 52.7789 15.2551 51.7273 15.2551C50.72 15.2551 49.8627 14.9066 49.1589 14.2097C48.454 13.5116 48.1016 12.6475 48.1016 11.6161C48.1016 10.5835 48.454 9.71932 49.1589 9.02242C49.8627 8.32435 50.72 7.9759 51.7273 7.9759C52.2275 7.9759 52.7056 8.07347 53.1593 8.26744C53.6141 8.46257 53.9782 8.72159 54.2504 9.04565L53.6374 9.65892C53.1755 9.10721 52.5393 8.83193 51.7262 8.83193C50.991 8.83193 50.3559 9.08978 49.8196 9.60549C49.2834 10.1212 49.0159 10.7914 49.0159 11.6149C49.0159 12.4384 49.2834 13.1086 49.8196 13.6243C50.3559 14.14 50.991 14.3979 51.7262 14.3979C52.5055 14.3979 53.1558 14.1388 53.6757 13.6197C54.0131 13.2817 54.2085 12.8112 54.2608 12.2084H51.7262V11.371H55.1077C55.1426 11.5533 55.1577 11.7287 55.1577 11.8971Z" stroke="white" stroke-width="0.232301" stroke-miterlimit="10"/>
<path d="M60.5203 8.98648H57.3423V11.1957H60.2085V12.0331H57.3423V14.2423H60.5203V15.0995H56.4455V8.13045H60.5203V8.98648Z" stroke="white" stroke-width="0.232301" stroke-miterlimit="10"/>
<path d="M64.3018 15.0995H63.4049V8.98648H61.4554V8.13045H66.2513V8.98648H64.3018V15.0995Z" stroke="white" stroke-width="0.232301" stroke-miterlimit="10"/>
<path d="M69.7212 15.0995V8.13045H70.618V15.0995H69.7212Z" stroke="white" stroke-width="0.232301" stroke-miterlimit="10"/>
<path d="M74.5953 15.0995H73.6985V8.98648H71.7489V8.13045H76.5449V8.98648H74.5953V15.0995Z" stroke="white" stroke-width="0.232301" stroke-miterlimit="10"/>
<path d="M85.6236 14.1993C84.9373 14.9032 84.0846 15.2551 83.0645 15.2551C82.0443 15.2551 81.1917 14.9032 80.5065 14.1993C79.8202 13.4954 79.4783 12.6336 79.4783 11.6149C79.4783 10.5963 79.8202 9.73447 80.5065 9.0306C81.1917 8.32673 82.0443 7.97363 83.0645 7.97363C84.0788 7.97363 84.9303 8.32789 85.6189 9.03525C86.3076 9.7426 86.6519 10.6021 86.6519 11.6149C86.6519 12.6336 86.3087 13.4954 85.6236 14.1993ZM81.1684 13.6151C81.6849 14.1377 82.3165 14.3979 83.0645 14.3979C83.8124 14.3979 84.4452 14.1366 84.9605 13.6151C85.477 13.0924 85.7364 12.4257 85.7364 11.6149C85.7364 10.8042 85.477 10.1375 84.9605 9.61484C84.4452 9.09216 83.8124 8.83198 83.0645 8.83198C82.3165 8.83198 81.6849 9.09332 81.1684 9.61484C80.6531 10.1375 80.3937 10.8042 80.3937 11.6149C80.3937 12.4257 80.6531 13.0924 81.1684 13.6151Z" stroke="white" stroke-width="0.232301" stroke-miterlimit="10"/>
<path d="M87.9105 15.0995V8.13045H89.0016L92.3936 13.5512H92.432L92.3936 12.2085V8.13045H93.2904V15.0995H92.354L88.805 9.41507H88.7666L88.805 10.7578V15.0995H87.9105Z" stroke="white" stroke-width="0.232301" stroke-miterlimit="10"/>
</g>
<g id="Google Play logo">
<path id="Subtract" fill-rule="evenodd" clip-rule="evenodd" d="M30.0757 16.5311L16.6728 8.76986C16.1667 8.46717 15.576 8.29248 14.9439 8.29248C13.6396 8.29248 12.4926 9.08162 11.9426 10.1847L12.0429 10.2848L24.1878 22.4092L30.0757 16.5311ZM11.6009 11.4848C11.5986 11.5342 11.5974 11.5838 11.5974 11.6336V34.8261C11.5974 34.8759 11.5986 34.9256 11.6009 34.975L23.3658 23.2298L11.6009 11.4848ZM11.9427 36.275C12.4928 37.378 13.64 38.1672 14.9439 38.1672C15.5624 38.1672 16.1431 38.0002 16.6411 37.7071L16.6806 37.6839L30.0986 29.9511L24.1878 24.0504L12.0429 36.175L11.9427 36.275ZM31.1409 29.3504L36.6049 26.2015C37.6545 25.6357 38.367 24.5309 38.367 23.2568C38.367 21.9919 37.6641 20.8926 36.625 20.3249L36.6131 20.3168L31.1161 17.1336L25.0098 23.2298L31.1409 29.3504Z" fill="white"/>
</g>
</g>
</svg>
