<svg width="582" height="1005" viewBox="0 0 582 1005" fill="none" xmlns="http://www.w3.org/2000/svg">
    <path fill-rule="evenodd" clip-rule="evenodd"
        d="M368.584 865.294C373.338 868.648 380.448 876.683 385.086 881.321C392.508 888.743 429.914 927.868 435.201 930.353C443.771 923.869 500.108 866.108 501.475 863.464C497.484 859.032 440.84 801.582 435.201 797.944C427.038 803.529 369.562 863.192 368.584 865.292V865.294Z"
        fill="#F1F1F1" />
    <path fill-rule="evenodd" clip-rule="evenodd"
        d="M516.001 865.224C525.196 871.73 574.419 926.041 582.542 930.366C591.03 924.548 647.569 866.136 648.894 863.362C641.441 855.345 587.758 800.981 582.542 797.938C573.936 804.764 517.048 863.106 516.001 865.225V865.224Z"
        fill="#F1F1F1" />
    <path fill-rule="evenodd" clip-rule="evenodd"
        d="M73.9767 421.799C78.2819 429.879 132.62 479.14 139.119 488.342C141.241 487.291 199.757 430.18 206.406 421.799C203.386 416.617 148.938 362.817 140.981 355.451C138.398 356.681 79.6097 413.519 73.9778 421.799H73.9767Z"
        fill="#F1F1F1" />
    <path fill-rule="evenodd" clip-rule="evenodd"
        d="M147.441 643.554C157.713 654.763 169.353 665.595 180.378 676.62L213.562 709.44C222.305 703.255 279.191 644.401 280.37 641.754L215.008 576.826C209.611 578.778 201.98 588.225 197.663 592.542C188.34 601.866 150.344 638.587 147.442 643.553L147.441 643.554Z"
        fill="#F1F1F1" />
    <path fill-rule="evenodd" clip-rule="evenodd"
        d="M73.9889 569.14C76.4236 574.363 115.179 611.428 122.453 618.696C127.227 623.466 135.588 630.876 139.048 635.756C141.189 634.752 201.018 577.057 206.398 569.14C202.799 563.576 145.34 506.909 140.871 502.864C135.112 505.851 113.425 529.297 107.049 535.672L73.9878 569.14H73.9889Z"
        fill="#F1F1F1" />
    <path fill-rule="evenodd" clip-rule="evenodd"
        d="M508.063 1004.34C510.639 1003.06 568.768 946.531 574.944 938.058C573.251 934.124 570.742 932.587 567.002 928.853L525.956 887.793C521.138 882.975 513.591 876.315 509.929 871.37C507.86 872.429 448.506 929.922 442.166 938.429L508.064 1004.34L508.063 1004.34Z"
        fill="#F1F1F1" />
    <path fill-rule="evenodd" clip-rule="evenodd"
        d="M294.896 790.786L360.787 856.9C363.169 855.524 425.34 795.297 427.755 789.09L362.368 724.189C359.999 725.195 300.73 782.426 294.896 790.786Z"
        fill="#F1F1F1" />
    <path fill-rule="evenodd" clip-rule="evenodd"
        d="M0.00112615 496.275L65.9246 562.161C74.1849 556.087 131.85 496.601 132.972 494.409C120.68 485.284 74.3189 432.801 66.2816 429.405C57.9335 435.613 1.11601 494.013 0 496.274L0.00112615 496.275Z"
        fill="#F1F1F1" />
    <path fill-rule="evenodd" clip-rule="evenodd"
        d="M221.244 568.98C224.7 575.972 279.915 626.27 286.461 635.714C291.548 633.54 328.346 595.15 337.416 586.079C341.907 581.588 350.942 573.606 353.821 569.139L287.107 502.59L221.244 568.979V568.98Z"
        fill="#F1F1F1" />
    <path fill-rule="evenodd" clip-rule="evenodd"
        d="M355.571 139.533C357.744 143.32 415.927 201.362 422.042 206.488C431.537 196.169 485.709 144.309 488.169 139.488L422.002 73.4697C402.857 89.9047 376.093 121.097 355.571 139.533Z"
        fill="#F1F1F1" />
    <path fill-rule="evenodd" clip-rule="evenodd"
        d="M355.571 287.91C376.017 306.278 402.932 337.612 421.929 353.9L488.109 287.894C485.385 282.48 432.025 232.331 422.067 220.973C411.352 229.92 399.177 243.537 388.796 253.921C382.347 260.37 358.793 282.296 355.571 287.91Z"
        fill="#F1F1F1" />
    <path fill-rule="evenodd" clip-rule="evenodd"
        d="M502.988 139.652C505.996 144.179 514.364 151.602 518.772 156.02L569.399 206.506L635.99 139.986C620.359 124.685 581.972 84.3117 569.294 73.5232C546.87 94.7995 525.593 118.9 502.988 139.652Z"
        fill="#F1F1F1" />
    <path fill-rule="evenodd" clip-rule="evenodd"
        d="M282.139 213.721C285.176 218.507 346.609 278.937 348.594 279.924L414.661 213.81L348.583 147.55C346.601 148.545 285.173 208.94 282.139 213.721Z"
        fill="#F1F1F1" />
    <path fill-rule="evenodd" clip-rule="evenodd"
        d="M368.702 569.016C371.468 574.375 395.402 596.657 401.543 602.798C407.703 608.957 429.942 632.84 435.2 635.51L501.537 569.443L435.162 503.144L368.702 569.014V569.016Z"
        fill="#F1F1F1" />
    <path fill-rule="evenodd" clip-rule="evenodd"
        d="M147.405 348.786C158.625 358.775 207.153 409.68 213.804 414.616L279.919 348.601L213.884 281.842C208.599 285.588 149.287 345.122 147.406 348.786H147.405Z"
        fill="#F1F1F1" />
    <path fill-rule="evenodd" clip-rule="evenodd"
        d="M429.56 66.3796L495.609 132.832L562.064 66.4449L496.034 0C492.318 2.06423 432.049 62.2072 429.559 66.3796H429.56Z"
        fill="#F1F1F1" />
    <path fill-rule="evenodd" clip-rule="evenodd"
        d="M576.9 508.308C578.943 511.993 639.255 572.434 643.278 574.785L709.735 508.735L643.328 442.292L576.899 508.308H576.9Z"
        fill="#F1F1F1" />
    <path fill-rule="evenodd" clip-rule="evenodd"
        d="M429.357 360.861C431.869 365.033 492.375 425.415 495.937 427.346L562.213 361.28L495.953 294.921L429.357 360.86V360.861Z"
        fill="#F1F1F1" />
    <path fill-rule="evenodd" clip-rule="evenodd"
        d="M502.988 287.792C525.593 308.543 546.87 332.644 569.294 353.919C581.837 343.245 620.52 302.601 635.989 287.458L569.448 220.934L502.988 287.792Z"
        fill="#F1F1F1" />
    <path fill-rule="evenodd" clip-rule="evenodd"
        d="M516.039 717.803C524.521 723.662 574.631 778.578 582.542 782.953L648.618 717.377L582.55 650.501C577.782 654.029 570.984 661.704 566.248 666.447C557.243 675.468 518.21 713.02 516.04 717.803H516.039Z"
        fill="#F1F1F1" />
    <path fill-rule="evenodd" clip-rule="evenodd"
        d="M368.623 717.881C373.437 721.21 380.506 729.257 385.158 733.908C390.869 739.619 395.756 744.506 401.467 750.217C407.265 756.015 430.414 780.62 435.202 782.943L501.196 717.301L435.133 650.589C430.786 653.367 369.76 715.229 368.623 717.879V717.881Z"
        fill="#F1F1F1" />
    <path fill-rule="evenodd" clip-rule="evenodd"
        d="M442.102 643.123C451.759 654.26 464.556 665.811 475.216 676.468C486.47 687.724 497.226 698.457 508.307 709.495L575.018 643.485L508.615 576.582L442.104 643.123H442.102Z"
        fill="#F1F1F1" />
    <path fill-rule="evenodd" clip-rule="evenodd"
        d="M294.509 495.707C305.902 507.098 316.618 517.872 327.873 529.126C338.531 539.784 350.089 552.582 361.051 562.058L427.455 496.031L361.213 429.196L294.509 495.707Z"
        fill="#F1F1F1" />
    <path fill-rule="evenodd" clip-rule="evenodd"
        d="M503 435.17L569.15 501.371L635.973 434.818L569.457 368.428L503 435.17Z" fill="#F1F1F1" />
    <path fill-rule="evenodd" clip-rule="evenodd"
        d="M576.73 213.472L642.988 280.232L709.579 213.888L643.407 147.39L576.73 213.472Z"
        fill="#F1F1F1" />
</svg>
    