<svg width="140" height="47" viewBox="0 0 140 47" fill="none" xmlns="http://www.w3.org/2000/svg">
<g id="Mobile app store badge">
<rect x="1.20014" y="0.580752" width="138.219" height="45.2987" rx="7.54978" stroke="white" stroke-width="1.1615"/>
<g id="App Store">
<path d="M95.3119 22.3019V24.9629H93.6439V26.708H95.3119V32.6375C95.3119 34.6622 96.2278 35.4721 98.5321 35.4721C98.937 35.4721 99.3227 35.4239 99.6601 35.366V33.6402C99.3709 33.6691 99.1877 33.6884 98.8695 33.6884C97.8379 33.6884 97.3848 33.2063 97.3848 32.1072V26.708H99.6601V24.9629H97.3848V22.3019H95.3119Z" fill="white"/>
<path d="M105.53 35.6167C108.596 35.6167 110.476 33.5631 110.476 30.1597C110.476 26.7755 108.587 24.7123 105.53 24.7123C102.464 24.7123 100.575 26.7755 100.575 30.1597C100.575 33.5631 102.455 35.6167 105.53 35.6167ZM105.53 33.7752C103.727 33.7752 102.715 32.4543 102.715 30.1597C102.715 27.8843 103.727 26.5538 105.53 26.5538C107.323 26.5538 108.345 27.8843 108.345 30.1597C108.345 32.4447 107.323 33.7752 105.53 33.7752Z" fill="white"/>
<path d="M112.085 35.4142H114.158V29.2148C114.158 27.7397 115.266 26.7466 116.838 26.7466C117.204 26.7466 117.821 26.8141 117.995 26.8719V24.828C117.773 24.7701 117.378 24.7412 117.069 24.7412C115.7 24.7412 114.534 25.4932 114.235 26.5249H114.081V24.9147H112.085V35.4142Z" fill="white"/>
<path d="M123.142 26.4766C124.675 26.4766 125.678 27.5468 125.726 29.1955H120.423C120.539 27.5565 121.609 26.4766 123.142 26.4766ZM125.716 32.5796C125.331 33.3992 124.472 33.8523 123.219 33.8523C121.561 33.8523 120.491 32.6857 120.423 30.8442V30.7285H127.837V30.0054C127.837 26.708 126.073 24.7123 123.152 24.7123C120.192 24.7123 118.312 26.843 118.312 30.1982C118.312 33.5534 120.153 35.6167 123.161 35.6167C125.562 35.6167 127.24 34.4597 127.712 32.5796H125.716Z" fill="white"/>
<path d="M81.7181 31.5369C81.878 34.1151 84.0265 35.764 87.2243 35.764C90.6419 35.764 92.7804 34.0352 92.7804 31.2771C92.7804 29.1086 91.5612 27.9095 88.6033 27.2199L87.0144 26.8302C85.1357 26.3905 84.3762 25.8009 84.3762 24.7716C84.3762 23.4726 85.5554 22.6231 87.3242 22.6231C89.003 22.6231 90.1622 23.4526 90.3721 24.7816H92.5505C92.4206 22.3533 90.2821 20.6445 87.3542 20.6445C84.2064 20.6445 82.1078 22.3533 82.1078 24.9215C82.1078 27.0401 83.297 28.2992 85.9052 28.9088L87.7639 29.3584C89.6725 29.8081 90.512 30.4677 90.512 31.5669C90.512 32.846 89.1929 33.7754 87.3941 33.7754C85.4655 33.7754 84.1264 32.906 83.9365 31.5369H81.7181Z" fill="white"/>
<path d="M60.245 24.7412C58.8181 24.7412 57.584 25.4547 56.9476 26.6502H56.7934V24.9147H54.7976V38.9044H56.8705V33.8234H57.0344C57.584 34.9321 58.7698 35.5878 60.2643 35.5878C62.9156 35.5878 64.6029 33.4956 64.6029 30.1597C64.6029 26.8237 62.9156 24.7412 60.245 24.7412ZM59.6569 33.727C57.9214 33.727 56.8319 32.3579 56.8319 30.1693C56.8319 27.9711 57.9214 26.602 59.6665 26.602C61.4212 26.602 62.4721 27.9421 62.4721 30.1597C62.4721 32.3868 61.4212 33.727 59.6569 33.727Z" fill="white"/>
<path d="M71.8563 24.7412C70.4294 24.7412 69.1953 25.4547 68.5589 26.6502H68.4047V24.9147H66.4089V38.9044H68.4818V33.8234H68.6457C69.1953 34.9321 70.3812 35.5878 71.8756 35.5878C74.527 35.5878 76.2142 33.4956 76.2142 30.1597C76.2142 26.8237 74.527 24.7412 71.8563 24.7412ZM71.2682 33.727C69.5327 33.727 68.4432 32.3579 68.4432 30.1693C68.4432 27.9711 69.5327 26.602 71.2778 26.602C73.0326 26.602 74.0835 27.9421 74.0835 30.1597C74.0835 32.3868 73.0326 33.727 71.2682 33.727Z" fill="white"/>
<path d="M51.0784 35.4142H53.4568L48.2504 20.9943H45.8421L40.6357 35.4142H42.9341L44.2632 31.5869H49.7594L51.0784 35.4142ZM46.9313 23.6125H47.1012L49.1898 29.7082H44.8328L46.9313 23.6125Z" fill="white"/>
</g>
<g id="Download on the">
<path d="M42.0286 10.1177V17.0739H44.5401C46.613 17.0739 47.8134 15.7964 47.8134 13.5741C47.8134 11.3855 46.6034 10.1177 44.5401 10.1177H42.0286ZM43.1084 11.1011H44.4196C45.861 11.1011 46.7143 12.017 46.7143 13.5886C46.7143 15.1842 45.8755 16.0905 44.4196 16.0905H43.1084V11.1011Z" fill="white"/>
<path d="M51.4897 17.1752C53.0226 17.1752 53.9627 16.1484 53.9627 14.4466C53.9627 12.7546 53.0178 11.723 51.4897 11.723C49.9567 11.723 49.0118 12.7546 49.0118 14.4466C49.0118 16.1484 49.9519 17.1752 51.4897 17.1752ZM51.4897 16.2544C50.5882 16.2544 50.082 15.594 50.082 14.4466C50.082 13.309 50.5882 12.6437 51.4897 12.6437C52.3863 12.6437 52.8973 13.309 52.8973 14.4466C52.8973 15.5892 52.3863 16.2544 51.4897 16.2544Z" fill="white"/>
<path d="M61.9679 11.8242H60.9315L59.9963 15.8302H59.9143L58.8345 11.8242H57.8414L56.7616 15.8302H56.6844L55.7444 11.8242H54.6935L56.1397 17.0739H57.2051L58.2849 13.2077H58.3669L59.4515 17.0739H60.5265L61.9679 11.8242Z" fill="white"/>
<path d="M63.1615 17.0739H64.198V14.0031C64.198 13.1836 64.6849 12.6726 65.4514 12.6726C66.2179 12.6726 66.5842 13.092 66.5842 13.9357V17.0739H67.6207V13.6753C67.6207 12.4268 66.9747 11.723 65.8033 11.723C65.0127 11.723 64.492 12.0749 64.2365 12.6582H64.1594V11.8242H63.1615V17.0739Z" fill="white"/>
<path d="M69.253 17.0739H70.2894V9.77539H69.253V17.0739Z" fill="white"/>
<path d="M74.1874 17.1752C75.7204 17.1752 76.6604 16.1484 76.6604 14.4466C76.6604 12.7546 75.7156 11.723 74.1874 11.723C72.6544 11.723 71.7096 12.7546 71.7096 14.4466C71.7096 16.1484 72.6496 17.1752 74.1874 17.1752ZM74.1874 16.2544C73.286 16.2544 72.7798 15.594 72.7798 14.4466C72.7798 13.309 73.286 12.6437 74.1874 12.6437C75.0841 12.6437 75.5951 13.309 75.5951 14.4466C75.5951 15.5892 75.0841 16.2544 74.1874 16.2544Z" fill="white"/>
<path d="M79.7486 16.2882C79.1846 16.2882 78.7748 16.0134 78.7748 15.5409C78.7748 15.0782 79.1026 14.8323 79.8257 14.7841L81.108 14.7021V15.1408C81.108 15.7916 80.5295 16.2882 79.7486 16.2882ZM79.4834 17.1607C80.1728 17.1607 80.7465 16.8618 81.0598 16.3364H81.1418V17.0739H82.1396V13.4873C82.1396 12.3786 81.3973 11.723 80.0812 11.723C78.8905 11.723 78.0421 12.3014 77.936 13.2029H78.9387C79.0544 12.8317 79.4545 12.6196 80.033 12.6196C80.7416 12.6196 81.108 12.9329 81.108 13.4873V13.9405L79.6859 14.0224C78.4374 14.0996 77.7335 14.6443 77.7335 15.5892C77.7335 16.5485 78.4711 17.1607 79.4834 17.1607Z" fill="white"/>
<path d="M85.6568 17.1607C86.3799 17.1607 86.9922 16.8184 87.3055 16.2448H87.3875V17.0739H88.3805V9.77539H87.3441V12.6582H87.2669C86.9825 12.0797 86.3751 11.7374 85.6568 11.7374C84.3311 11.7374 83.4779 12.7883 83.4779 14.4466C83.4779 16.1098 84.3215 17.1607 85.6568 17.1607ZM85.9509 12.6678C86.8186 12.6678 87.3634 13.3572 87.3634 14.4515C87.3634 15.5506 86.8234 16.2303 85.9509 16.2303C85.0735 16.2303 84.5481 15.5602 84.5481 14.4466C84.5481 13.3427 85.0783 12.6678 85.9509 12.6678Z" fill="white"/>
<path d="M95.1015 17.1752C96.6345 17.1752 97.5746 16.1484 97.5746 14.4466C97.5746 12.7546 96.6297 11.723 95.1015 11.723C93.5686 11.723 92.6237 12.7546 92.6237 14.4466C92.6237 16.1484 93.5637 17.1752 95.1015 17.1752ZM95.1015 16.2544C94.2001 16.2544 93.6939 15.594 93.6939 14.4466C93.6939 13.309 94.2001 12.6437 95.1015 12.6437C95.9982 12.6437 96.5092 13.309 96.5092 14.4466C96.5092 15.5892 95.9982 16.2544 95.1015 16.2544Z" fill="white"/>
<path d="M98.9465 17.0739H99.983V14.0031C99.983 13.1836 100.47 12.6726 101.236 12.6726C102.003 12.6726 102.369 13.092 102.369 13.9357V17.0739H103.406V13.6753C103.406 12.4268 102.76 11.723 101.588 11.723C100.798 11.723 100.277 12.0749 100.022 12.6582H99.9444V11.8242H98.9465V17.0739Z" fill="white"/>
<path d="M108.179 10.5178V11.8483H107.345V12.7208H108.179V15.6856C108.179 16.6979 108.637 17.1028 109.789 17.1028C109.992 17.1028 110.185 17.0787 110.353 17.0498V16.1869C110.209 16.2014 110.117 16.211 109.958 16.211C109.442 16.211 109.216 15.97 109.216 15.4204V12.7208H110.353V11.8483H109.216V10.5178H108.179Z" fill="white"/>
<path d="M111.745 17.0739H112.781V14.008C112.781 13.2125 113.253 12.6775 114.102 12.6775C114.835 12.6775 115.225 13.1017 115.225 13.9405V17.0739H116.262V13.685C116.262 12.4364 115.572 11.7278 114.454 11.7278C113.663 11.7278 113.109 12.0797 112.853 12.6678H112.771V9.77539H111.745V17.0739Z" fill="white"/>
<path d="M120 12.6051C120.767 12.6051 121.268 13.1402 121.292 13.9646H118.641C118.699 13.1451 119.234 12.6051 120 12.6051ZM121.288 15.6566C121.095 16.0664 120.666 16.293 120.039 16.293C119.21 16.293 118.675 15.7097 118.641 14.7889V14.7311H122.348V14.3695C122.348 12.7208 121.466 11.723 120.005 11.723C118.525 11.723 117.585 12.7883 117.585 14.4659C117.585 16.1435 118.506 17.1752 120.01 17.1752C121.21 17.1752 122.049 16.5967 122.285 15.6566H121.288Z" fill="white"/>
</g>
<g id="Apple logo">
<path d="M29.3886 23.5795C29.4137 21.6271 30.4623 19.7796 32.1257 18.7569C31.0763 17.2582 29.3186 16.308 27.49 16.2508C25.5395 16.046 23.6486 17.4179 22.6547 17.4179C21.6416 17.4179 20.1113 16.2711 18.4634 16.305C16.3155 16.3744 14.3131 17.5956 13.2681 19.4734C11.0218 23.3626 12.6974 29.0784 14.8492 32.2222C15.9258 33.7616 17.184 35.4811 18.8304 35.4202C20.4415 35.3533 21.0432 34.3928 22.9879 34.3928C24.9145 34.3928 25.4791 35.4202 27.1588 35.3814C28.8876 35.3533 29.9768 33.8351 31.0156 32.2812C31.7892 31.1843 32.3844 29.972 32.7793 28.6892C30.7477 27.8299 29.3909 25.7854 29.3886 23.5795Z" fill="white"/>
<path d="M26.2157 14.1833C27.1583 13.0517 27.6227 11.5973 27.5102 10.1289C26.0702 10.2802 24.7399 10.9684 23.7846 12.0566C22.8504 13.1197 22.3643 14.5485 22.4562 15.9608C23.8968 15.9757 25.313 15.306 26.2157 14.1833Z" fill="white"/>
</g>
</g>
</svg>
