<svg width="468" height="469" viewBox="0 0 468 469" fill="none" xmlns="http://www.w3.org/2000/svg">
<path fill-rule="evenodd" clip-rule="evenodd" d="M171.948 403.29C174.162 404.852 177.473 408.595 179.633 410.755C183.09 414.211 200.511 432.433 202.973 433.591C206.965 430.571 233.203 403.669 233.84 402.438C231.981 400.374 205.6 373.617 202.973 371.923C199.172 374.524 172.403 402.311 171.948 403.289V403.29Z" fill="#5EF4EB" fill-opacity="0.46"/>
<path fill-rule="evenodd" clip-rule="evenodd" d="M240.606 403.258C244.888 406.288 267.813 431.583 271.596 433.597C275.549 430.887 301.882 403.682 302.499 402.391C299.027 398.657 274.026 373.337 271.596 371.92C267.588 375.099 241.093 402.271 240.606 403.258V403.258Z" fill="#5EF4EB" fill-opacity="0.46"/>
<path fill-rule="evenodd" clip-rule="evenodd" d="M34.7375 196.738C36.7427 200.501 62.0498 223.444 65.0767 227.729C66.0653 227.24 93.3184 200.641 96.4149 196.738C95.0083 194.324 69.6497 169.268 65.9442 165.837C64.741 166.41 37.361 192.881 34.7381 196.738H34.7375Z" fill="#5EF4EB" fill-opacity="0.46"/>
<path fill-rule="evenodd" clip-rule="evenodd" d="M68.9524 300.018C73.7368 305.238 79.1579 310.283 84.2927 315.418L99.7478 330.703C103.819 327.822 130.314 300.412 130.863 299.179L100.421 268.939C97.9074 269.849 94.3534 274.248 92.3431 276.259C88.0008 280.601 70.3045 297.704 68.9529 300.017L68.9524 300.018Z" fill="#5EF4EB" fill-opacity="0.46"/>
<path fill-rule="evenodd" clip-rule="evenodd" d="M34.7432 265.36C35.8771 267.793 53.9269 285.055 57.3146 288.44C59.5385 290.661 63.4323 294.112 65.0435 296.386C66.0411 295.918 93.9057 269.047 96.4112 265.36C94.7349 262.768 67.9744 236.377 65.8927 234.493C63.2104 235.884 53.1103 246.804 50.1407 249.773L34.7427 265.36H34.7432Z" fill="#5EF4EB" fill-opacity="0.46"/>
<path fill-rule="evenodd" clip-rule="evenodd" d="M236.908 468.049C238.108 467.454 265.181 441.126 268.057 437.179C267.269 435.347 266.1 434.631 264.359 432.892L245.242 413.769C242.998 411.525 239.483 408.423 237.777 406.12C236.814 406.614 209.17 433.39 206.217 437.352L236.909 468.049L236.908 468.049Z" fill="#5EF4EB" fill-opacity="0.46"/>
<path fill-rule="evenodd" clip-rule="evenodd" d="M137.628 368.589L168.316 399.381C169.425 398.74 198.381 370.69 199.506 367.799L169.052 337.572C167.949 338.041 140.345 364.695 137.628 368.589Z" fill="#5EF4EB" fill-opacity="0.46"/>
<path fill-rule="evenodd" clip-rule="evenodd" d="M0.284216 231.424L30.9873 262.11C34.8345 259.281 61.6915 231.576 62.2139 230.555C56.4891 226.305 34.8969 201.862 31.1536 200.28C27.2656 203.171 0.803461 230.371 0.283691 231.423L0.284216 231.424Z" fill="#5EF4EB" fill-opacity="0.46"/>
<path fill-rule="evenodd" clip-rule="evenodd" d="M103.325 265.286C104.935 268.542 130.651 291.967 133.7 296.366C136.069 295.353 153.207 277.474 157.431 273.249C159.523 271.157 163.731 267.44 165.072 265.359L134 234.365L103.325 265.285V265.286Z" fill="#5EF4EB" fill-opacity="0.46"/>
<path fill-rule="evenodd" clip-rule="evenodd" d="M165.887 65.2755C166.899 67.0393 193.997 94.0716 196.845 96.459C201.267 91.6531 226.497 67.4998 227.643 65.2545L196.826 34.5073C187.91 42.1617 175.444 56.6891 165.887 65.2755Z" fill="#5EF4EB" fill-opacity="0.46"/>
<path fill-rule="evenodd" clip-rule="evenodd" d="M274.928 368.451C277.184 371.495 300.99 394.225 305.598 399.399C307.262 398.552 335.052 370.869 336.821 368.387L305.809 337.472L274.928 368.451V368.451Z" fill="#5EF4EB" fill-opacity="0.46"/>
<path fill-rule="evenodd" clip-rule="evenodd" d="M371.878 271.487C374.273 274.362 401.321 301.452 403.062 302.448C411.559 293.026 426.557 280.039 433.789 271.535L403.052 240.718C400.848 241.827 376.634 267.126 371.878 271.487Z" fill="#5EF4EB" fill-opacity="0.46"/>
<path fill-rule="evenodd" clip-rule="evenodd" d="M165.887 134.38C175.409 142.935 187.945 157.528 196.792 165.114L227.615 134.373C226.346 131.851 201.494 108.495 196.857 103.205C191.866 107.372 186.196 113.714 181.361 118.55C178.358 121.554 167.387 131.766 165.887 134.38Z" fill="#5EF4EB" fill-opacity="0.46"/>
<path fill-rule="evenodd" clip-rule="evenodd" d="M337.673 305.694C338.853 308.036 350.062 318.51 352.878 321.325C355.577 324.024 366.449 335.343 368.507 336.646C370.745 335.217 398.855 306.642 399.333 305.695L368.547 274.927L337.673 305.694H337.673Z" fill="#5EF4EB" fill-opacity="0.46"/>
<path fill-rule="evenodd" clip-rule="evenodd" d="M234.545 65.3308C235.945 67.4392 239.843 70.8967 241.896 72.9543L265.475 96.4677L296.489 65.4866C289.209 58.3603 271.331 39.5568 265.426 34.5322C254.982 44.4414 245.073 55.666 234.545 65.3308Z" fill="#5EF4EB" fill-opacity="0.46"/>
<path fill-rule="evenodd" clip-rule="evenodd" d="M131.687 99.8278C133.101 102.057 161.713 130.202 162.637 130.661L193.407 99.8692L162.632 69.0093C161.709 69.4729 133.1 97.6013 131.687 99.8278Z" fill="#5EF4EB" fill-opacity="0.46"/>
<path fill-rule="evenodd" clip-rule="evenodd" d="M303.21 202.908C313.136 213.369 324.279 223.261 334.013 233.785C336.149 232.343 339.549 228.511 341.627 226.433L365.142 202.853L334.167 171.844C329.055 177.065 323.972 182.026 318.716 187.282C313.766 192.232 307.548 197.811 303.21 202.908Z" fill="#5EF4EB" fill-opacity="0.46"/>
<path fill-rule="evenodd" clip-rule="evenodd" d="M172.003 265.302C173.291 267.798 184.438 278.176 187.298 281.036C190.167 283.904 200.524 295.028 202.973 296.271L233.869 265.501L202.955 234.623L172.003 265.302V265.302Z" fill="#5EF4EB" fill-opacity="0.46"/>
<path fill-rule="evenodd" clip-rule="evenodd" d="M68.9358 162.733C74.1618 167.385 96.7631 191.093 99.8608 193.392L130.653 162.646L99.898 131.554C97.4366 133.299 69.8127 161.026 68.9363 162.733H68.9358Z" fill="#5EF4EB" fill-opacity="0.46"/>
<path fill-rule="evenodd" clip-rule="evenodd" d="M200.347 31.2051L231.108 62.1547L262.059 31.2355L231.306 0.289551C229.575 1.25094 201.506 29.2619 200.346 31.2051H200.347Z" fill="#5EF4EB" fill-opacity="0.46"/>
<path fill-rule="evenodd" clip-rule="evenodd" d="M371.851 202.838L403 233.785C412.748 223.245 423.907 213.398 433.8 202.906C428.746 196.979 409.959 179.109 402.849 171.846L371.851 202.838H371.851Z" fill="#5EF4EB" fill-opacity="0.46"/>
<path fill-rule="evenodd" clip-rule="evenodd" d="M268.968 237.028C269.92 238.745 298.009 266.894 299.883 267.989L330.835 237.227L299.906 206.282L268.968 237.028H268.968Z" fill="#5EF4EB" fill-opacity="0.46"/>
<path fill-rule="evenodd" clip-rule="evenodd" d="M406.318 237.06L437.023 268.095C439.079 266.83 467.062 238.788 468 237.073L437.223 206.212L406.318 237.061V237.06Z" fill="#5EF4EB" fill-opacity="0.46"/>
<path fill-rule="evenodd" clip-rule="evenodd" d="M200.252 168.356C201.422 170.3 229.602 198.422 231.261 199.321L262.128 168.552L231.268 137.646L200.252 168.356V168.356Z" fill="#5EF4EB" fill-opacity="0.46"/>
<path fill-rule="evenodd" clip-rule="evenodd" d="M234.545 134.325C245.073 143.99 254.982 155.215 265.426 165.124C271.268 160.152 289.284 141.222 296.488 134.17L265.498 103.187L234.545 134.325Z" fill="#5EF4EB" fill-opacity="0.46"/>
<path fill-rule="evenodd" clip-rule="evenodd" d="M240.623 334.598C244.573 337.327 267.912 362.903 271.596 364.941L302.37 334.4L271.6 303.253C269.379 304.896 266.213 308.471 264.007 310.68C259.813 314.881 241.634 332.371 240.623 334.598H240.623Z" fill="#5EF4EB" fill-opacity="0.46"/>
<path fill-rule="evenodd" clip-rule="evenodd" d="M171.966 334.634C174.208 336.185 177.5 339.933 179.667 342.099C182.326 344.759 184.603 347.035 187.262 349.695C189.963 352.395 200.744 363.855 202.974 364.936L233.71 334.364L202.942 303.294C200.917 304.588 172.495 333.399 171.966 334.634V334.634Z" fill="#5EF4EB" fill-opacity="0.46"/>
<path fill-rule="evenodd" clip-rule="evenodd" d="M206.188 299.817C210.685 305.003 216.645 310.383 221.61 315.347C226.852 320.589 231.861 325.588 237.022 330.729L268.092 299.985L237.165 268.826L206.188 299.817H206.188Z" fill="#5EF4EB" fill-opacity="0.46"/>
<path fill-rule="evenodd" clip-rule="evenodd" d="M137.448 231.16C142.754 236.465 147.745 241.483 152.987 246.724C157.951 251.688 163.333 257.648 168.439 262.062L199.366 231.311L168.514 200.183L137.448 231.16Z" fill="#5EF4EB" fill-opacity="0.46"/>
<path fill-rule="evenodd" clip-rule="evenodd" d="M234.55 202.965L265.359 233.797L296.481 202.801L265.502 171.881L234.55 202.965Z" fill="#5EF4EB" fill-opacity="0.46"/>
<path fill-rule="evenodd" clip-rule="evenodd" d="M337.606 168.391L368.39 199.443L399.479 168.59L368.586 137.57L337.606 168.391Z" fill="#5EF4EB" fill-opacity="0.46"/>
<path fill-rule="evenodd" clip-rule="evenodd" d="M268.889 99.7116L299.748 130.804L330.762 99.9052L299.943 68.9346L268.889 99.7116Z" fill="#5EF4EB" fill-opacity="0.46"/>
</svg>
