<svg width="32" height="32" viewBox="0 0 32 32" fill="none" xmlns="http://www.w3.org/2000/svg">
<g id="Group 736">
<path id="Union" fill-rule="evenodd" clip-rule="evenodd" d="M23.7695 2.7356C23.7695 1.22713 24.9967 0 26.5051 0C28.0136 0 29.2407 1.22713 29.2407 2.7356C29.2407 4.24406 28.0136 5.47119 26.5051 5.47119C26.2809 5.47119 26.0662 5.43648 25.8576 5.38535L21.396 10.2265C21.7367 10.6827 21.9458 11.2424 21.9458 11.8542C21.9458 13.3627 20.7187 14.5898 19.2102 14.5898C17.7017 14.5898 16.4746 13.3627 16.4746 11.8542C16.4746 11.5703 16.5304 11.3016 16.6111 11.0439L13.4296 8.65846C12.9955 8.94832 12.4753 9.11865 11.9153 9.11865C11.3553 9.11865 10.835 8.94832 10.401 8.65846L7.21948 11.0439C7.30021 11.3016 7.35596 11.5703 7.35596 11.8542C7.35596 13.3627 6.12883 14.5898 4.62036 14.5898C3.11189 14.5898 1.88477 13.3627 1.88477 11.8542C1.88477 10.3458 3.11189 9.11865 4.62036 9.11865C5.18037 9.11865 5.70062 9.28899 6.13467 9.57884L9.31616 7.1934C9.23543 6.93571 9.17969 6.66701 9.17969 6.38306C9.17969 4.87459 10.4068 3.64746 11.9153 3.64746C13.4238 3.64746 14.6509 4.87459 14.6509 6.38306C14.6509 6.66701 14.5951 6.93571 14.5144 7.1934L17.6959 9.57884C18.1299 9.28899 18.6502 9.11865 19.2102 9.11865C19.4344 9.11865 19.6491 9.15336 19.8578 9.20449L24.3193 4.36334C23.9786 3.90716 23.7695 3.34746 23.7695 2.7356ZM9.17969 15.5017C9.17969 14.9977 9.58753 14.5898 10.0916 14.5898H13.739C14.243 14.5898 14.6509 14.9977 14.6509 15.5017V27.4775H9.17969V15.5017ZM17.3865 18.2373C16.8825 18.2373 16.4746 18.6452 16.4746 19.1492V27.4775H21.9458V19.1492C21.9458 18.6452 21.538 18.2373 21.0339 18.2373H17.3865ZM23.7695 11.8542C23.7695 11.3502 24.1774 10.9424 24.6814 10.9424H28.3289C28.8329 10.9424 29.2407 11.3502 29.2407 11.8542V27.4775H23.7695V11.8542ZM2.79663 20.061C2.29261 20.061 1.88477 20.4689 1.88477 20.9729V27.4775H7.35596V20.9729C7.35596 20.4689 6.94811 20.061 6.44409 20.061H2.79663ZM23.534 29.3013H30.2131C30.7172 29.3013 31.125 29.7091 31.125 30.2131C31.125 30.7172 30.7172 31.125 30.2131 31.125H0.911865C0.407847 31.125 0 30.7172 0 30.2131C0 29.7091 0.407847 29.3013 0.911865 29.3013H23.0769H23.534Z" fill="#0B2F82"/>
</g>
</svg>
