<svg width="35" height="31" viewBox="0 0 35 31" fill="none" xmlns="http://www.w3.org/2000/svg">
    <g id="Group 737">
        <g id="Group">
            <path id="Vector"
                d="M33.9746 10.2539H32.8125V3.07617C32.8125 2.50988 32.3534 2.05078 31.7871 2.05078C31.2208 2.05078 30.7617 2.50988 30.7617 3.07617V10.2539H28.7109V5.12695C28.7109 4.56066 28.2518 4.10156 27.6855 4.10156C27.1193 4.10156 26.6602 4.56066 26.6602 5.12695V10.2539H24.6094V7.17773C24.6094 6.61145 24.1503 6.15234 23.584 6.15234C23.0177 6.15234 22.5586 6.61145 22.5586 7.17773V10.2539H21.5332C20.9669 10.2539 20.5078 10.713 20.5078 11.2793C20.5078 11.8456 20.9669 12.3047 21.5332 12.3047H33.9746C34.5409 12.3047 35 11.8456 35 11.2793C35 10.713 34.5409 10.2539 33.9746 10.2539Z"
                fill="#0B2F82" />
            <path id="Vector_2"
                d="M31.7869 14.3555H18.4568V1.02539C18.4568 0.459375 17.9975 0 17.4314 0C11.1417 0 5.54307 3.79873 3.19287 9.55322L17.7555 14.4081C18.3844 14.6173 18.653 15.361 18.301 15.9243L10.1655 28.9406C12.3913 30.1349 14.8823 30.7617 17.4314 30.7617C25.9319 30.7617 32.8123 23.8827 32.8123 15.3809C32.8123 14.8148 32.3529 14.3555 31.7869 14.3555Z"
                fill="#0B2F82" />
            <path id="Vector_3"
                d="M1.66312 11.2055C1.07516 11.0095 0.451309 11.3742 0.33168 11.979C0.111152 13.0939 0 14.2317 0 15.3809C0 20.773 2.46292 25.6647 6.41553 28.8912C6.8963 29.2837 7.60854 29.1627 7.93454 28.6411L15.8717 15.9421L1.66312 11.2055Z"
                fill="#0B2F82" />
        </g>
    </g>
</svg>
    