<svg width="23" height="30" viewBox="0 0 23 30" fill="none" xmlns="http://www.w3.org/2000/svg">
    <g id="Group 736">
        <path id="Vector"
            d="M22.0812 2.53113C21.5836 2.0325 20.9218 1.75781 20.2178 1.75781H19.0491V2.92969C19.0491 4.22203 17.9989 5.27344 16.708 5.27344H6.17279C4.88186 5.27344 3.83162 4.22203 3.83162 2.92969V1.75781H2.6591C1.20844 1.75781 0.0269549 2.9393 0.0253143 4.3916L1.83904e-06 27.3604C-0.000818473 28.0652 0.272815 28.728 0.770334 29.2267C1.26797 29.7254 1.92973 30 2.63379 30H20.1924C21.6431 30 22.8246 28.8185 22.8262 27.3662L22.8516 4.39746C22.8524 3.69264 22.5788 3.02982 22.0812 2.53113ZM11.7243 10.5469H17.9617C18.4466 10.5469 18.8396 10.9404 18.8396 11.4258C18.8396 11.9112 18.4466 12.3047 17.9617 12.3047H11.7243C11.2394 12.3047 10.8463 11.9112 10.8463 11.4258C10.8463 10.9404 11.2394 10.5469 11.7243 10.5469ZM11.7243 16.4062H17.9617C18.4466 16.4062 18.8396 16.7998 18.8396 17.2852C18.8396 17.7705 18.4466 18.1641 17.9617 18.1641H11.7243C11.2394 18.1641 10.8463 17.7705 10.8463 17.2852C10.8463 16.7998 11.2394 16.4062 11.7243 16.4062ZM11.7243 22.2656H17.9868C18.4717 22.2656 18.8647 22.6591 18.8647 23.1445C18.8647 23.6299 18.4717 24.0234 17.9868 24.0234H11.7243C11.2394 24.0234 10.8463 23.6299 10.8463 23.1445C10.8463 22.6591 11.2394 22.2656 11.7243 22.2656ZM4.24401 10.5816C4.5869 10.2383 5.14272 10.2383 5.48561 10.5816L5.96297 11.0595L7.98762 9.03264C8.33051 8.68945 8.88633 8.68934 9.22916 9.03264C9.57199 9.37582 9.57199 9.93234 9.22916 10.2756L6.58371 12.9239C6.41906 13.0887 6.19576 13.1814 5.96291 13.1814C5.73006 13.1814 5.50676 13.0888 5.34211 12.9239L4.24395 11.8245C3.90111 11.4813 3.90111 10.9247 4.24401 10.5816ZM4.24401 16.8884C4.5869 16.5452 5.14272 16.5452 5.48561 16.8884L5.96297 17.3663L7.98762 15.3394C8.33045 14.9963 8.88633 14.9963 9.22916 15.3394C9.57199 15.6826 9.57199 16.2391 9.22916 16.5824L6.58371 19.2308C6.41912 19.3956 6.19576 19.4882 5.96291 19.4882C5.73006 19.4882 5.50676 19.3956 5.34211 19.2308L4.24395 18.1313C3.90111 17.7881 3.90111 17.2317 4.24401 16.8884ZM4.24401 22.7478C4.5869 22.4046 5.14272 22.4046 5.48561 22.7478L5.96297 23.2257L7.98762 21.1988C8.33045 20.8556 8.88633 20.8556 9.22916 21.1988C9.57199 21.542 9.57199 22.0985 9.22916 22.4418L6.58371 25.0901C6.41912 25.255 6.19576 25.3476 5.96291 25.3476C5.73006 25.3476 5.50676 25.255 5.34211 25.0901L4.24395 23.9907C3.90111 23.6475 3.90111 23.091 4.24401 22.7478Z"
            fill="#0B2F82" />
        <path id="Vector_2"
            d="M5.5874 2.92969C5.5874 3.2533 5.84943 3.51562 6.1727 3.51562H16.7079C17.0311 3.51562 17.2931 3.2533 17.2931 2.92969V0.585938C17.2931 0.262324 17.0311 0 16.7079 0H6.1727C5.84943 0 5.5874 0.262324 5.5874 0.585938V2.92969Z"
            fill="#0B2F82" />
    </g>
</svg>
    