<svg xmlns="http://www.w3.org/2000/svg" width="24" height="24" viewBox="0 0 24 24" fill="none">
    <path
        fill-rule="evenodd"
        clip-rule="evenodd"
        d="M7.10002 6C7.56329 3.71776 9.58104 2 12 2C14.419 2 16.4367 3.71776 16.9 6H17C19.7614 6 22 8.23858 22 11V17C22 19.7614 19.7614 22 17 22H7C4.23858 22 2 19.7614 2 17V11C2 8.23858 4.23858 6 7 6H7.10002ZM9.17071 6C9.58254 4.83481 10.6938 4 12 4C13.3062 4 14.4175 4.83481 14.8293 6H9.17071Z"
        stroke="white"
        stroke-linejoin="round"
    />
</svg>