<svg xmlns="http://www.w3.org/2000/svg" width="32" height="16" viewBox="0 0 32 16" fill="none">
    <path
        d="M0.999969 1.99994H30.9998C31.5518 1.99994 31.9997 1.55191 31.9997 0.999969C31.9997 0.44795 31.5517 0 30.9998 0H0.999969C0.447949 0 0 0.448033 0 0.999969C0 1.55191 0.448033 1.99994 0.999969 1.99994Z"
        fill="#F5F8FD" />
    <path
        d="M30.9998 6.99995H0.999969C0.447949 6.99995 0 7.44799 0 7.99992C0 8.55186 0.448033 8.99989 0.999969 8.99989H30.9998C31.5518 8.99989 31.9997 8.55186 31.9997 7.99992C31.9997 7.44799 31.5518 6.99995 30.9998 6.99995Z"
        fill="#F5F8FD" />
    <path
        d="M30.9998 13.9999H11C10.4479 13.9999 10 14.4479 10 14.9999C10 15.5519 10.448 15.9998 11 15.9998H30.9998C31.5519 15.9998 31.9998 15.5518 31.9998 14.9999C31.9999 14.4478 31.5519 13.9999 30.9998 13.9999Z"
        fill="#F5F8FD" />
</svg>