<svg width="263" height="154" viewBox="0 0 263 154" fill="none" xmlns="http://www.w3.org/2000/svg">
    <g opacity="0.5">
        <path fill-rule="evenodd" clip-rule="evenodd"
            d="M20.4995 116.884C21.6925 119.123 36.7499 132.773 38.5508 135.323C39.1391 135.032 55.3542 119.206 57.1966 116.884C56.3596 115.447 41.2717 100.539 39.067 98.498C38.3511 98.8388 22.0605 114.589 20.4998 116.884H20.4995Z"
            fill="none" />
        <path fill-rule="evenodd" clip-rule="evenodd"
            d="M20.5029 157.713C21.1776 159.16 31.9169 169.431 33.9325 171.445C35.2557 172.767 37.5724 174.82 38.5311 176.173C39.1246 175.894 55.7036 159.907 57.1943 157.713C56.197 156.171 40.2749 140.468 39.0363 139.347C37.4404 140.175 31.431 146.672 29.6641 148.439L20.5026 157.713H20.5029Z"
            fill="none" />
        <path fill-rule="evenodd" clip-rule="evenodd"
            d="M0.000312063 137.521L18.2682 155.779C20.5572 154.096 36.5367 137.612 36.8475 137.004C33.4413 134.475 20.5943 119.932 18.3671 118.991C16.0538 120.711 0.309255 136.895 0 137.521L0.000312063 137.521Z"
            fill="none" />
        <path fill-rule="evenodd" clip-rule="evenodd"
            d="M61.3082 157.668C62.2659 159.606 77.5664 173.544 79.3804 176.161C80.79 175.558 90.987 164.92 93.5004 162.406C94.7449 161.162 97.2486 158.95 98.0462 157.712L79.5592 139.271L61.3082 157.668V157.668Z"
            fill="none" />
        <path fill-rule="evenodd" clip-rule="evenodd"
            d="M98.5312 38.6655C99.1335 39.7149 115.256 55.7987 116.951 57.2192C119.582 54.3597 134.594 39.9889 135.275 38.653L116.94 20.3589C111.634 24.9131 104.218 33.5567 98.5312 38.6655Z"
            fill="none" />
        <path fill-rule="evenodd" clip-rule="evenodd"
            d="M221.093 161.358C222.518 163.069 238.611 179.187 239.647 179.779C244.702 174.174 253.626 166.446 257.929 161.387L239.641 143.051C238.33 143.711 223.922 158.763 221.093 161.358Z"
            fill="none" />
        <path fill-rule="evenodd" clip-rule="evenodd"
            d="M98.5312 79.7821C104.197 84.8719 111.655 93.5547 116.92 98.0684L135.259 79.7778C134.504 78.2774 119.717 64.3809 116.958 61.2334C113.989 63.7127 110.615 67.4859 107.738 70.3634C105.951 72.1506 99.4241 78.2265 98.5312 79.7821Z"
            fill="none" />
        <path fill-rule="evenodd" clip-rule="evenodd"
            d="M139.381 38.6982C140.215 39.9527 142.534 42.0098 143.755 43.234L157.784 57.2241L176.237 38.7909C171.906 34.5509 161.269 23.3631 157.755 20.3735C151.542 26.2693 145.646 32.9478 139.381 38.6982Z"
            fill="none" />
        <path fill-rule="evenodd" clip-rule="evenodd"
            d="M78.1827 59.2232C79.0244 60.5495 96.0477 77.2951 96.5979 77.5685L114.905 59.2479L96.5948 40.8867C96.0456 41.1626 79.0234 57.8985 78.1827 59.2232Z"
            fill="none" />
        <path fill-rule="evenodd" clip-rule="evenodd"
            d="M180.236 120.555C186.142 126.779 192.772 132.664 198.564 138.926C199.834 138.068 201.857 135.788 203.094 134.551L217.085 120.522L198.655 102.072C195.614 105.178 192.589 108.13 189.462 111.257C186.517 114.203 182.818 117.522 180.236 120.555Z"
            fill="none" />
        <path fill-rule="evenodd" clip-rule="evenodd"
            d="M102.17 157.678C102.936 159.163 109.569 165.338 111.27 167.04C112.977 168.746 119.14 175.365 120.597 176.104L138.979 157.797L120.586 139.425L102.17 157.678V157.678Z"
            fill="none" />
        <path fill-rule="evenodd" clip-rule="evenodd"
            d="M40.8469 96.6512C43.9563 99.4192 57.4038 113.525 59.2468 114.893L77.5677 96.6L59.269 78.1006C57.8044 79.1388 41.3687 95.6361 40.8472 96.6512H40.8469Z"
            fill="none" />
        <path fill-rule="evenodd" clip-rule="evenodd"
            d="M119.034 18.3943L137.337 36.8088L155.752 18.4124L137.454 0C136.425 0.572012 119.724 17.2381 119.034 18.3943H119.034Z"
            fill="none" />
        <path fill-rule="evenodd" clip-rule="evenodd"
            d="M221.077 120.513L239.61 138.926C245.41 132.655 252.049 126.796 257.936 120.554C254.929 117.027 243.75 106.395 239.52 102.074L221.077 120.513H221.077Z"
            fill="none" />
        <path fill-rule="evenodd" clip-rule="evenodd"
            d="M159.863 140.856C160.429 141.877 177.142 158.625 178.257 159.277L196.673 140.974L178.271 122.562L159.863 140.856H159.863Z"
            fill="none" />
        <path fill-rule="evenodd" clip-rule="evenodd"
            d="M241.584 140.875L259.853 159.34C261.077 158.588 277.726 141.903 278.284 140.883L259.972 122.521L241.584 140.875V140.875Z"
            fill="none" />
        <path fill-rule="evenodd" clip-rule="evenodd"
            d="M118.978 99.9973C119.674 101.154 136.441 117.886 137.428 118.421L155.793 100.113L137.432 81.7251L118.978 99.997V99.9973Z"
            fill="none" />
        <path fill-rule="evenodd" clip-rule="evenodd"
            d="M139.381 79.7491C145.646 85.4994 151.542 92.1779 157.755 98.0734C161.231 95.1157 171.951 83.8527 176.237 79.6567L157.798 61.2222L139.381 79.7491Z"
            fill="none" />
        <path fill-rule="evenodd" clip-rule="evenodd"
            d="M81.6105 137.364C84.7676 140.52 87.7372 143.506 90.856 146.625C93.8093 149.578 97.012 153.124 100.05 155.75L118.451 137.454L100.095 118.933L81.6105 137.364Z"
            fill="none" />
        <path fill-rule="evenodd" clip-rule="evenodd"
            d="M139.385 120.589L157.716 138.934L176.233 120.491L157.801 102.094L139.385 120.589Z"
            fill="none" />
        <path fill-rule="evenodd" clip-rule="evenodd"
            d="M200.701 100.018L219.018 118.493L237.515 100.136L219.134 81.6797L200.701 100.018Z"
            fill="none" />
        <path fill-rule="evenodd" clip-rule="evenodd"
            d="M159.816 59.1546L178.177 77.6544L196.63 59.2698L178.293 40.8428L159.816 59.1546Z"
            fill="none" />
    </g>
</svg>
    