<svg width="500" height="691.03" viewBox="0 0 500 691.03" fill="none" xmlns="http://www.w3.org/2000/svg"><path fill-rule="evenodd" clip-rule="evenodd" d="M62.51 595.213c3.269 2.307 8.16 7.835 11.35 11.025 5.105 5.105 30.836 32.018 34.473 33.728 5.895 -4.46 44.648 -44.193 45.589 -46.012 -2.746 -3.048 -41.709 -42.566 -45.589 -45.069 -5.615 3.842 -45.151 44.883 -45.823 46.327z" fill="#F1F1F1"/><path fill-rule="evenodd" clip-rule="evenodd" d="M163.914 595.164c6.326 4.475 40.184 41.835 45.772 44.809 5.839 -4.002 44.731 -44.182 45.641 -46.09 -5.126 -5.515 -42.053 -42.91 -45.641 -45.003 -5.919 4.695 -45.051 44.827 -45.772 46.285z" fill="#F1F1F1"/><path fill-rule="evenodd" clip-rule="evenodd" d="M-89.61 442.684c7.066 7.71 15.073 15.162 22.658 22.745l22.826 22.576c6.013 -4.254 45.145 -44.738 45.955 -46.559l-44.96 -44.662c-3.713 1.343 -8.962 7.841 -11.931 10.811 -6.414 6.414 -32.55 31.673 -34.547 35.089z" fill="#F1F1F1"/><path fill-rule="evenodd" clip-rule="evenodd" d="M158.453 690.859c1.772 -0.88 41.757 -39.766 46.005 -45.594 -1.164 -2.706 -2.89 -3.763 -5.463 -6.332l-28.234 -28.243c-3.315 -3.315 -8.506 -7.896 -11.025 -11.297 -1.423 0.729 -42.252 40.277 -46.613 46.129l45.331 45.337z" fill="#F1F1F1"/><path fill-rule="evenodd" clip-rule="evenodd" d="m11.821 543.961 45.324 45.478c1.639 -0.946 44.404 -42.375 46.066 -46.645l-44.978 -44.644c-1.63 0.692 -42.4 40.06 -46.412 45.811" fill="#F1F1F1"/><path fill-rule="evenodd" clip-rule="evenodd" d="M-38.842 391.387c2.377 4.809 40.359 39.408 44.861 45.904 3.499 -1.495 28.812 -27.903 35.05 -34.142 3.09 -3.09 9.305 -8.58 11.285 -11.652L6.463 345.718l-45.306 45.668z" fill="#F1F1F1"/><path fill-rule="evenodd" clip-rule="evenodd" d="M53.558 95.981c1.495 2.605 41.517 42.531 45.723 46.056 6.532 -7.098 43.795 -42.771 45.487 -46.087l-45.514 -45.412c-13.169 11.305 -31.58 32.761 -45.696 45.443" fill="#F1F1F1"/><path fill-rule="evenodd" clip-rule="evenodd" d="M214.605 543.757c3.333 4.495 38.493 38.066 45.299 45.708 2.458 -1.251 43.502 -42.137 46.115 -45.803L260.216 498.002z" fill="#F1F1F1"/><path fill-rule="evenodd" clip-rule="evenodd" d="M357.797 400.545c3.538 4.247 43.487 44.257 46.058 45.728 12.549 -13.914 34.7 -33.096 45.382 -45.656l-45.398 -45.515c-3.254 1.637 -39.018 39.002 -46.042 45.444" fill="#F1F1F1"/><path fill-rule="evenodd" clip-rule="evenodd" d="M53.558 198.046c14.064 12.635 32.578 34.189 45.645 45.393l45.524 -45.404c-1.874 -3.724 -38.579 -38.22 -45.429 -46.033 -7.37 6.154 -15.745 15.521 -22.887 22.664 -4.435 4.436 -20.638 19.519 -22.854 23.38" fill="#F1F1F1"/><path fill-rule="evenodd" clip-rule="evenodd" d="M307.277 451.068c1.743 3.458 18.299 18.928 22.458 23.085 3.986 3.987 20.044 20.704 23.083 22.629 3.305 -2.11 44.823 -44.315 45.528 -45.713l-45.468 -45.443 -45.6 45.442z" fill="#F1F1F1"/><path fill-rule="evenodd" clip-rule="evenodd" d="M154.962 96.062c2.07 3.115 7.826 8.221 10.858 11.26l34.825 34.728 45.806 -45.757c-10.752 -10.525 -37.158 -38.297 -45.879 -45.718 -15.424 14.635 -30.061 31.213 -45.61 45.488" fill="#F1F1F1"/><path fill-rule="evenodd" clip-rule="evenodd" d="M3.046 147.012c2.09 3.292 44.347 44.86 45.713 45.539l45.445 -45.478L48.751 101.495c-1.363 0.685 -43.618 42.229 -45.705 45.517" fill="#F1F1F1"/><path fill-rule="evenodd" clip-rule="evenodd" d="M256.378 299.257c14.66 15.45 31.117 30.059 45.494 45.603 3.154 -2.13 8.176 -7.789 11.246 -10.859l34.73 -34.826 -45.749 -45.8c-7.55 7.712 -15.057 15.039 -22.82 22.802 -7.311 7.311 -16.494 15.55 -22.901 23.079" fill="#F1F1F1"/><path fill-rule="evenodd" clip-rule="evenodd" d="M62.591 391.411c1.902 3.687 18.365 19.014 22.59 23.238 4.238 4.237 19.535 20.665 23.152 22.502l45.631 -45.446 -45.658 -45.605 -45.716 45.311z" fill="#F1F1F1"/><path fill-rule="evenodd" clip-rule="evenodd" d="M-89.635 239.92c7.719 6.871 41.1 41.887 45.675 45.282l45.478 -45.409 -45.424 -45.922c-3.635 2.577 -44.434 43.529 -45.729 46.049z" fill="#F1F1F1"/><path fill-rule="evenodd" clip-rule="evenodd" d="m104.453 45.661 45.433 45.711 45.713 -45.666L150.179 0c-2.556 1.42 -44.013 42.791 -45.726 45.661z" fill="#F1F1F1"/><path fill-rule="evenodd" clip-rule="evenodd" d="m357.757 299.154 46.006 45.708c14.397 -15.566 30.88 -30.11 45.491 -45.606 -7.464 -8.755 -35.213 -35.147 -45.713 -45.875l-45.782 45.773z" fill="#F1F1F1"/><path fill-rule="evenodd" clip-rule="evenodd" d="M205.805 349.652c1.404 2.535 42.892 44.11 45.659 45.728l45.713 -45.434 -45.679 -45.704z" fill="#F1F1F1"/><path fill-rule="evenodd" clip-rule="evenodd" d="m408.663 349.699 45.35 45.837c3.037 -1.869 44.366 -43.286 45.751 -45.818l-45.455 -45.581z" fill="#F1F1F1"/><path fill-rule="evenodd" clip-rule="evenodd" d="M104.313 248.227c1.728 2.87 43.349 44.404 45.799 45.733l45.59 -45.445 -45.579 -45.646 -45.81 45.357z" fill="#F1F1F1"/><path fill-rule="evenodd" clip-rule="evenodd" d="M154.962 197.964c15.55 14.275 30.186 30.853 45.61 45.488 8.629 -7.342 35.238 -35.301 45.878 -45.717l-45.772 -45.76z" fill="#F1F1F1"/><path fill-rule="evenodd" clip-rule="evenodd" d="M163.939 493.758c5.835 4.03 40.304 41.805 45.746 44.815l45.452 -45.108 -45.446 -46.002c-3.28 2.427 -7.957 7.706 -11.213 10.969 -6.194 6.205 -33.045 32.036 -34.537 35.326z" fill="#F1F1F1"/><path fill-rule="evenodd" clip-rule="evenodd" d="M62.536 493.811c3.311 2.29 8.174 7.826 11.375 11.025l11.218 11.218c3.988 3.989 19.912 20.914 23.205 22.512l45.395 -45.154 -45.443 -45.89c-2.99 1.911 -44.968 44.464 -45.751 46.287z" fill="#F1F1F1"/><path fill-rule="evenodd" clip-rule="evenodd" d="M113.081 442.387c6.643 7.66 15.445 15.606 22.778 22.938 7.742 7.743 15.14 15.125 22.762 22.718l45.889 -45.406 -45.677 -46.022 -45.752 45.772z" fill="#F1F1F1"/><path fill-rule="evenodd" clip-rule="evenodd" d="M11.555 340.984c7.837 7.836 15.208 15.247 22.95 22.988 7.331 7.331 15.282 16.134 22.822 22.653l45.678 -45.419 -45.566 -45.974z" fill="#F1F1F1"/><path fill-rule="evenodd" clip-rule="evenodd" d="m154.97 299.342 45.503 45.537 45.966 -45.78 -45.755 -45.668z" fill="#F1F1F1"/><path fill-rule="evenodd" clip-rule="evenodd" d="m307.179 248.279 45.467 45.862 45.917 -45.57 -45.628 -45.815z" fill="#F1F1F1"/><path fill-rule="evenodd" clip-rule="evenodd" d="m205.688 146.842 45.577 45.923 45.806 -45.637 -45.518 -45.743z" fill="#F1F1F1"/></svg>