<svg width="500" height="863.402" viewBox="0 0 500 863.402" fill="none"
    xmlns="http://www.w3.org/2000/svg">
    <path fill-rule="evenodd" clip-rule="evenodd"
        d="M316.653 743.38c4.084 2.881 10.192 9.784 14.177 13.769 6.376 6.376 38.512 39.989 43.054 42.124 7.363 -5.57 55.762 -55.193 56.936 -57.465 -3.429 -3.808 -52.092 -53.163 -56.936 -56.289 -7.013 4.798 -56.391 56.055 -57.231 57.859z"
        fill="#F1F1F1" />
    <path fill-rule="evenodd" clip-rule="evenodd"
        d="M443.3 743.32c7.899 5.588 50.187 52.248 57.166 55.964 7.292 -4.998 55.865 -55.18 57.003 -57.564 -6.403 -6.887 -52.522 -53.593 -57.003 -56.206 -7.393 5.864 -56.266 55.985 -57.166 57.807z"
        fill="#F1F1F1" />
    <path fill-rule="evenodd" clip-rule="evenodd"
        d="M63.554 362.37c3.698 6.942 50.381 49.262 55.964 57.168 1.823 -0.903 52.095 -49.967 57.807 -57.168 -2.595 -4.452 -49.371 -50.672 -56.207 -57 -2.219 1.057 -52.724 49.887 -57.563 57z"
        fill="#F1F1F1" />
    <path fill-rule="evenodd" clip-rule="evenodd"
        d="M126.668 552.882c8.825 9.629 18.825 18.936 28.296 28.407l28.509 28.195c7.511 -5.314 56.382 -55.875 57.395 -58.149l-56.153 -55.78c-4.637 1.678 -11.192 9.793 -14.901 13.503 -8.009 8.009 -40.652 39.557 -43.145 43.824z"
        fill="#F1F1F1" />
    <path fill-rule="evenodd" clip-rule="evenodd"
        d="M63.564 488.952c2.092 4.487 35.387 36.33 41.636 42.574 4.101 4.098 11.284 10.464 14.257 14.656 1.839 -0.863 53.239 -50.429 57.861 -57.23 -3.092 -4.78 -52.455 -53.463 -56.295 -56.938 -4.948 2.566 -23.579 22.709 -29.057 28.186L63.564 488.952"
        fill="#F1F1F1" />
    <path fill-rule="evenodd" clip-rule="evenodd"
        d="M436.48 862.835c2.213 -1.1 52.152 -49.665 57.458 -56.944 -1.454 -3.379 -3.61 -4.699 -6.823 -7.908l-35.263 -35.274c-4.139 -4.14 -10.623 -9.862 -13.769 -14.11 -1.777 0.911 -52.769 50.303 -58.216 57.612l56.613 56.625z"
        fill="#F1F1F1" />
    <path fill-rule="evenodd" clip-rule="evenodd"
        d="m253.347 679.369 56.607 56.799c2.046 -1.182 55.458 -52.924 57.533 -58.256l-56.174 -55.757c-2.035 0.864 -52.954 50.032 -57.966 57.214"
        fill="#F1F1F1" />
    <path fill-rule="evenodd" clip-rule="evenodd"
        d="m0.001 426.353 56.636 56.603c7.096 -5.218 56.637 -56.323 57.601 -58.206 -10.56 -7.839 -50.389 -52.928 -57.294 -55.845C49.771 374.238 0.959 424.41 0 426.352z"
        fill="#F1F1F1" />
    <path fill-rule="evenodd" clip-rule="evenodd"
        d="M190.072 488.815c2.969 6.006 50.405 49.217 56.028 57.331 4.37 -1.868 35.984 -34.849 43.776 -42.642 3.858 -3.858 11.62 -10.716 14.094 -14.553l-57.314 -57.173z"
        fill="#F1F1F1" />
    <path fill-rule="evenodd" clip-rule="evenodd"
        d="M305.473 119.874c1.867 3.253 51.852 53.118 57.106 57.521 8.157 -8.865 54.697 -53.418 56.81 -57.56L362.545 63.119c-16.448 14.119 -39.441 40.917 -57.071 56.755"
        fill="#F1F1F1" />
    <path fill-rule="evenodd" clip-rule="evenodd"
        d="M305.473 247.345c17.565 15.779 40.688 42.698 57.009 56.692l56.856 -56.706c-2.34 -4.652 -48.182 -47.735 -56.737 -57.492 -9.205 7.686 -19.665 19.384 -28.583 28.305 -5.54 5.541 -25.776 24.378 -28.544 29.201"
        fill="#F1F1F1" />
    <path fill-rule="evenodd" clip-rule="evenodd"
        d="M432.12 119.975c2.584 3.889 9.773 10.267 13.56 14.063l43.494 43.373 57.209 -57.148c-13.429 -13.145 -46.407 -47.831 -57.299 -57.099 -19.265 18.278 -37.544 38.984 -56.964 56.811"
        fill="#F1F1F1" />
    <path fill-rule="evenodd" clip-rule="evenodd"
        d="M242.387 183.609c2.609 4.112 55.387 56.027 57.092 56.875l56.759 -56.798 -56.768 -56.925c-1.703 0.856 -54.476 52.741 -57.082 56.849"
        fill="#F1F1F1" />
    <path fill-rule="evenodd" clip-rule="evenodd"
        d="M316.754 488.845c2.376 4.605 22.938 23.747 28.214 29.022 5.292 5.291 24.398 25.81 28.915 28.104l56.991 -56.759 -57.023 -56.958z"
        fill="#F1F1F1" />
    <path fill-rule="evenodd" clip-rule="evenodd"
        d="M126.637 299.644c9.639 8.582 51.33 52.314 57.044 56.555l56.8 -56.714 -56.731 -57.353c-4.54 3.218 -55.496 54.364 -57.112 57.512z"
        fill="#F1F1F1" />
    <path fill-rule="evenodd" clip-rule="evenodd"
        d="m369.038 57.027 56.743 57.089 57.092 -57.034L426.146 0c-3.192 1.773 -54.97 53.442 -57.109 57.027z"
        fill="#F1F1F1" />
    <path fill-rule="evenodd" clip-rule="evenodd"
        d="M495.619 436.692c1.755 3.166 53.57 55.09 57.026 57.11l57.094 -56.743 -57.051 -57.082z"
        fill="#F1F1F1" />
    <path fill-rule="evenodd" clip-rule="evenodd"
        d="M368.863 310.017c2.158 3.585 54.139 55.459 57.199 57.119l56.938 -56.759 -56.924 -57.009 -57.213 56.648z"
        fill="#F1F1F1" />
    <path fill-rule="evenodd" clip-rule="evenodd"
        d="M432.12 247.244c19.42 17.827 37.699 38.533 56.964 56.81 10.776 -9.17 44.009 -44.088 57.298 -57.097l-57.166 -57.151z"
        fill="#F1F1F1" />
    <path fill-rule="evenodd" clip-rule="evenodd"
        d="M443.332 616.669c7.287 5.034 50.337 52.212 57.133 55.971l56.766 -56.337 -56.759 -57.454c-4.096 3.031 -9.936 9.625 -14.005 13.699 -7.736 7.75 -41.27 40.011 -43.134 44.12z"
        fill="#F1F1F1" />
    <path fill-rule="evenodd" clip-rule="evenodd"
        d="M316.686 616.736c4.136 2.86 10.209 9.773 14.205 13.769l14.011 14.011c4.981 4.981 24.869 26.119 28.982 28.115l56.696 -56.393 -56.755 -57.313c-3.735 2.387 -56.162 55.533 -57.139 57.809z"
        fill="#F1F1F1" />
    <path fill-rule="evenodd" clip-rule="evenodd"
        d="M379.813 552.511c8.296 9.567 19.29 19.491 28.448 28.647a19946.735 19946.735 0 0 0 28.429 28.374l57.312 -56.71 -57.047 -57.477 -57.14 57.167z"
        fill="#F1F1F1" />
    <path fill-rule="evenodd" clip-rule="evenodd"
        d="M253.015 425.865c9.788 9.786 18.994 19.041 28.663 28.71 9.156 9.156 19.086 20.151 28.503 28.292l57.048 -56.724 -56.909 -57.419z"
        fill="#F1F1F1" />
    <path fill-rule="evenodd" clip-rule="evenodd"
        d="m432.131 373.857 56.83 56.873 57.408 -57.176 -57.144 -57.035z" fill="#F1F1F1" />
    <path fill-rule="evenodd" clip-rule="evenodd"
        d="m495.473 183.395 56.923 57.355 57.209 -56.997 -56.849 -57.129z" fill="#F1F1F1" />
</svg>