<svg width="100px" height="100px" viewBox="0 0 8 8" xmlns="http://www.w3.org/2000/svg"
    xmlns:xlink="http://www.w3.org/1999/xlink" aria-hidden="true" role="img"
    class="iconify iconify--emojione" preserveAspectRatio="xMidYMid meet">
    <path
        d="M7.263 2.45c-1.225 -0.75 -3.125 -1.85 -3.388 -1.85S1.788 1.712 0.625 2.45l-0.063 -0.113C0.863 2.15 3.5 0.475 3.875 0.475s3.138 1.675 3.45 1.875z"
        fill="#ba9372" />
    <path
        d="M7.75 7.1c0 0.2 -0.15 0.375 -0.338 0.375H0.85c-0.188 0 -0.338 -0.163 -0.338 -0.375V2.638c0 -0.2 0.15 -0.375 0.338 -0.375h6.563c0.188 0 0.338 0.163 0.338 0.375z"
        fill="#93a2aa" />
    <path
        d="M7.5 2.638c0 -0.2 -0.15 -0.375 -0.338 -0.375H0.588c-0.188 0 -0.338 0.163 -0.338 0.375v1.188h7.25z"
        fill="#ed4c5c" />
    <path
        d="M0.25 3.825v3.275c0 0.2 0.15 0.375 0.338 0.375h6.563c0.188 0 0.338 -0.163 0.338 -0.375V3.825z"
        fill="#d9e3e8" />
    <g fill="#93a2aa">
        <path d="M0.563 4.125h0.75v0.275h-0.75z" />
        <path d="M1.538 4.125h0.75v0.275h-0.75z" />
        <path d="M2.525 4.125h0.75v0.275h-0.75z" />
        <path d="M3.5 4.125h0.75v0.275h-0.75z" />
        <path d="M4.475 4.125h0.75v0.275h-0.75z" />
        <path d="M5.463 4.125h0.75v0.275h-0.75z" />
        <path d="M6.438 4.125h0.75v0.275h-0.75z" />
        <path d="M3.5 4.675h0.75v0.275h-0.75z" />
        <path d="M4.475 4.675h0.75v0.275h-0.75z" />
        <path d="M5.463 4.675h0.75v0.275h-0.75z" />
        <path d="M6.438 4.675h0.75v0.275h-0.75z" />
        <path d="M0.563 5.225h0.75V5.5h-0.75z" />
        <path d="M1.538 5.225h0.75V5.5h-0.75z" />
        <path d="M2.525 5.225h0.75V5.5h-0.75z" />
        <path d="M3.5 5.225h0.75V5.5h-0.75z" />
        <path d="M4.475 5.225h0.75V5.5h-0.75z" />
        <path d="M5.463 5.225h0.75V5.5h-0.75z" />
        <path d="M6.438 5.225h0.75V5.5h-0.75z" />
        <path d="M0.563 5.787h0.75v0.275h-0.75z" />
        <path d="M1.538 5.787h0.75v0.275h-0.75z" />
        <path d="M2.525 5.787h0.75v0.275h-0.75z" />
        <path d="M3.5 5.787h0.75v0.275h-0.75z" />
        <path d="M4.475 5.787h0.75v0.275h-0.75z" />
        <path d="M5.463 5.787h0.75v0.275h-0.75z" />
        <path d="M6.438 5.787h0.75v0.275h-0.75z" />
        <path d="M0.563 6.338h0.75v0.275h-0.75z" />
        <path d="M1.538 6.338h0.75v0.275h-0.75z" />
        <path d="M2.525 6.338h0.75v0.275h-0.75z" />
        <path d="M3.5 6.338h0.75v0.275h-0.75z" />
        <path d="M4.475 6.338h0.75v0.275h-0.75z" />
        <path d="M5.463 6.338h0.75v0.275h-0.75z" />
        <path d="M6.438 6.338h0.75v0.275h-0.75z" />
        <path d="M0.563 6.888h0.75v0.275h-0.75z" />
        <path d="M1.538 6.888h0.75v0.275h-0.75z" />
        <path d="M2.525 6.888h0.75v0.275h-0.75z" />
        <path d="M3.5 6.888h0.75v0.275h-0.75z" />
        <path d="M4.475 6.888h0.75v0.275h-0.75z" />
        <path d="M5.463 6.888h0.75v0.275h-0.75z" />
    </g>
    <path cx="31.2" cy="6.2" rx="1.8" ry="1.9" fill="#333"
        d="M4.125 0.775A0.225 0.237 0 0 1 3.9 1.012A0.225 0.237 0 0 1 3.675 0.775A0.225 0.237 0 0 1 4.125 0.775z" />
    <path cx="31" cy="6.2" rx="1.8" ry="1.9" fill="#93a2aa"
        d="M4.1 0.775A0.225 0.237 0 0 1 3.875 1.012A0.225 0.237 0 0 1 3.65 0.775A0.225 0.237 0 0 1 4.1 0.775z" />
    <g fill="#ffffff">
        <path
            d="M2.438 3.188v0.025c0 0.075 0.013 0.125 0.025 0.163 0.013 0.025 0.037 0.05 0.087 0.05s0.075 -0.013 0.087 -0.05c0.013 -0.025 0.013 -0.05 0.013 -0.1v-0.688h0.2v0.675c0 0.087 -0.013 0.15 -0.037 0.2 -0.05 0.087 -0.125 0.125 -0.25 0.125s-0.2 -0.037 -0.25 -0.1c-0.037 -0.063 -0.063 -0.163 -0.063 -0.275v-0.025z" />
        <path
            d="M3.063 2.587h0.2v0.6c0 0.063 0.013 0.113 0.025 0.15 0.025 0.05 0.075 0.087 0.163 0.087 0.075 0 0.138 -0.025 0.163 -0.087 0.013 -0.037 0.013 -0.087 0.013 -0.15v-0.6h0.2v0.6c0 0.1 -0.013 0.188 -0.05 0.237 -0.063 0.1 -0.175 0.163 -0.338 0.163s-0.275 -0.05 -0.338 -0.163c-0.037 -0.063 -0.05 -0.138 -0.05 -0.237 0.013 0 0.013 -0.6 0.013 -0.6" />
        <path d="M4.025 2.587h0.2v0.8h0.475v0.175h-0.675z" />
        <path d="M5.275 2.587H5.5l-0.325 0.613v0.362h-0.2v-0.362l-0.338 -0.613H4.875l0.2 0.425z" />
    </g>
</svg>