<svg xmlns="http://www.w3.org/2000/svg" width="32" height="32" viewBox="0 0 32 32" fill="none">
    <g opacity="0.87">
        <path
            fill-rule="evenodd"
            clip-rule="evenodd"
            d="M15.9999 4.00016C9.3725 4.00016 3.99992 9.37274 3.99992 16.0002C3.99992 22.6276 9.3725 28.0002 15.9999 28.0002C22.6273 28.0002 27.9999 22.6276 27.9999 16.0002C27.9999 9.37274 22.6273 4.00016 15.9999 4.00016ZM1.33325 16.0002C1.33325 7.89999 7.89974 1.3335 15.9999 1.3335C24.1001 1.3335 30.6666 7.89999 30.6666 16.0002C30.6666 24.1003 24.1001 30.6668 15.9999 30.6668C7.89974 30.6668 1.33325 24.1003 1.33325 16.0002Z"
            fill="white"
        />
        <path
            fill-rule="evenodd"
            clip-rule="evenodd"
            d="M15.9999 6.66683C16.7363 6.66683 17.3333 7.26378 17.3333 8.00016V15.1761L21.9295 17.4743C22.5882 17.8036 22.8551 18.6045 22.5258 19.2631C22.1965 19.9218 21.3956 20.1887 20.737 19.8594L15.4036 17.1927C14.9519 16.9669 14.6666 16.5052 14.6666 16.0002V8.00016C14.6666 7.26378 15.2635 6.66683 15.9999 6.66683Z"
            fill="white"
        />
    </g>
</svg>