<svg width="34" height="13" viewBox="0 0 34 13" fill="none" xmlns="http://www.w3.org/2000/svg">
<g id="Group 5">
<g id="Group">
<g id="Group_2">
<path id="Vector" d="M33.0039 2.96998H31.9669C31.6806 2.25545 31.2924 1.74359 30.9401 1.39131C30.0483 0.499404 29.0413 0.253237 28.754 0.199116C27.8802 0.0343621 26.4795 -0.00880285 25.0697 0.00149011C25.0655 0.00142371 25.0615 0.000826416 25.0573 0.000826416H25.0571L9.23087 0.00401419C9.22881 0.00401419 9.22688 0.00428014 9.22489 0.00434655C7.71827 -0.0143136 6.18063 0.0228738 5.24603 0.199116C4.95869 0.253237 3.9517 0.499404 3.05993 1.39131C2.70765 1.74366 2.31937 2.25545 2.03309 2.96998H0.996094C0.445984 2.96998 0 3.41597 0 3.96608C0 4.51619 0.445984 4.96217 0.996094 4.96217H1.61805C1.61161 5.0904 1.60809 5.22202 1.60809 5.35742C1.60809 9.65397 4.4957 11.9322 7.17871 12.2307C7.45842 12.2618 7.73812 12.2772 8.01676 12.2772C9.83736 12.2771 11.6087 11.6212 12.9768 10.4198C14.0563 9.47202 15.3118 7.79858 15.8122 4.9621H18.1878C18.6882 7.79851 19.9437 9.47202 21.0232 10.4198C22.3915 11.6213 24.1625 12.2772 25.9832 12.2772C26.2617 12.2771 26.5417 12.2618 26.8213 12.2307C29.5042 11.9322 32.3919 9.65397 32.3919 5.35742C32.3919 5.22202 32.3884 5.0904 32.3819 4.96217H33.0039C33.554 4.96217 34 4.51619 34 3.96608C34 3.41597 33.554 2.96998 33.0039 2.96998ZM17.9788 2.96998H16.0212C16.0258 2.85317 16.0297 2.73537 16.0319 2.61544C16.0359 2.40354 16.0111 2.19542 15.9602 1.99487L18.04 1.99448C17.9891 2.19515 17.9641 2.4034 17.9681 2.61551C17.9703 2.73537 17.9742 2.85317 17.9788 2.96998Z" fill="#5EF4EB"/>
</g>
</g>
</g>
</svg>
