<svg width="24" height="24" viewBox="0 0 24 24" fill="none" xmlns="http://www.w3.org/2000/svg">
<g id="Group">
<path id="Vector" d="M4.41665 12.6435H0C0.138959 15.0682 0.994984 17.3573 2.46634 19.2645C3.29386 18.7971 4.22288 18.3963 5.22649 18.0695C4.74895 16.401 4.47131 14.5587 4.41665 12.6435Z" fill="#5EF4EB"/>
<path id="Vector_2" d="M4.41665 11.2371C4.47131 9.32188 4.74895 7.47954 5.22654 5.81095C4.22288 5.48418 3.29391 5.08343 2.46639 4.61601C0.994984 6.52323 0.138959 8.81231 0 11.2371H4.41665Z" fill="#5EF4EB"/>
<path id="Vector_3" d="M7.74606 3.27781C7.47902 3.77092 7.23791 4.29975 7.02356 4.85836C8.35924 5.17758 9.80448 5.3682 11.2968 5.41382V-1.52588e-05C9.98301 0.300454 8.74255 1.43763 7.74606 3.27781Z" fill="#5EF4EB"/>
<path id="Vector_4" d="M12.7032 -1.52588e-05V5.41377C14.1955 5.36816 15.6407 5.17748 16.9764 4.85831C16.762 4.29975 16.5209 3.77087 16.2539 3.27777C15.2574 1.43768 14.0169 0.300501 12.7032 -1.52588e-05Z" fill="#5EF4EB"/>
<path id="Vector_5" d="M17.422 6.19493C15.9446 6.55794 14.3474 6.77304 12.7032 6.82081V11.237H18.1762C18.1224 9.45007 17.8642 7.73797 17.422 6.19493Z" fill="#5EF4EB"/>
<path id="Vector_6" d="M5.66511 19.4034C4.85226 19.6681 4.09539 19.985 3.41138 20.3497C3.44096 20.3799 3.46998 20.4104 3.49989 20.4404C4.75099 21.6915 6.22957 22.632 7.84199 23.2251C7.3615 22.6735 6.91452 22.0207 6.50932 21.2725C6.19431 20.6908 5.91264 20.0648 5.66511 19.4034Z" fill="#5EF4EB"/>
<path id="Vector_7" d="M18.3348 4.47715C19.1477 4.21241 19.9046 3.89548 20.5886 3.53088C20.559 3.50068 20.53 3.47012 20.5001 3.44021C19.249 2.1891 17.7704 1.24855 16.158 0.655441C16.6385 1.20711 17.0854 1.85985 17.4906 2.60809C17.8056 3.18976 18.0873 3.81569 18.3348 4.47715Z" fill="#5EF4EB"/>
<path id="Vector_8" d="M19.5835 12.6435C19.5288 14.5587 19.2511 16.401 18.7736 18.0696C19.7772 18.3963 20.7062 18.7971 21.5337 19.2645C23.0051 17.3573 23.8611 15.0683 24.0001 12.6436H19.5835V12.6435Z" fill="#5EF4EB"/>
<path id="Vector_9" d="M18.3349 19.4034C18.0874 20.0648 17.8057 20.6907 17.4906 21.2724C17.0855 22.0207 16.6385 22.6734 16.158 23.2251C17.7704 22.632 19.249 21.6914 20.5001 20.4403C20.53 20.4104 20.559 20.3798 20.5885 20.3496C19.9046 19.9851 19.1477 19.6681 18.3349 19.4034Z" fill="#5EF4EB"/>
<path id="Vector_10" d="M5.66513 4.47715C5.91267 3.81569 6.19434 3.18981 6.50939 2.60809C6.91455 1.85985 7.36157 1.20711 7.84207 0.655441C6.22964 1.24855 4.75107 2.1891 3.49997 3.44021C3.47006 3.47012 3.44103 3.50068 3.4115 3.53088C4.09547 3.89548 4.85229 4.21241 5.66513 4.47715Z" fill="#5EF4EB"/>
<path id="Vector_11" d="M18.7734 5.81095C19.251 7.47954 19.5287 9.32187 19.5833 11.2371H24C23.861 8.81231 23.005 6.52323 21.5336 4.61606C20.7061 5.08343 19.7771 5.48418 18.7734 5.81095Z" fill="#5EF4EB"/>
<path id="Vector_12" d="M11.2968 11.2371V6.82084C9.65266 6.77307 8.05538 6.55792 6.57797 6.19496C6.13578 7.73795 5.8775 9.45005 5.82373 11.2371H11.2968V11.2371Z" fill="#5EF4EB"/>
<path id="Vector_13" d="M12.7032 12.6435V17.0597C14.3473 17.1075 15.9446 17.3226 17.422 17.6856C17.8642 16.1426 18.1224 14.4305 18.1762 12.6435H12.7032V12.6435Z" fill="#5EF4EB"/>
<path id="Vector_14" d="M16.2539 20.6028C16.5209 20.1097 16.762 19.5808 16.9764 19.0222C15.6407 18.703 14.1955 18.5124 12.7032 18.4668V23.8806C14.017 23.58 15.2574 22.4429 16.2539 20.6028Z" fill="#5EF4EB"/>
<path id="Vector_15" d="M11.2968 23.8806V18.4668C9.80453 18.5124 8.35928 18.703 7.02356 19.0222C7.23795 19.5808 7.47907 20.1097 7.74611 20.6028C8.7426 22.4429 9.98306 23.5801 11.2968 23.8806Z" fill="#5EF4EB"/>
<path id="Vector_16" d="M11.2968 12.6435H5.82373C5.87755 14.4306 6.13578 16.1426 6.57797 17.6856C8.05533 17.3226 9.65261 17.1075 11.2968 17.0597V12.6435Z" fill="#5EF4EB"/>
</g>
</svg>
