<svg xmlns="http://www.w3.org/2000/svg" shape-rendering="geometricPrecision"
    text-rendering="geometricPrecision" image-rendering="optimizeQuality" fill-rule="evenodd"
    clip-rule="evenodd" viewBox="0 0 100 116.19" width="100" height="116.19">
    <g fill-rule="nonzero">
        <path fill="#3C4D7A"
            d="M13.801 0h39.639c0.767 0 1.448 0.367 1.877 0.935l24.968 27.011a2.336 2.336 0 0 1 0.623 1.59h0.012v27.17a33.878 33.878 0 0 0 -4.706 -0.706v-20.91h-9.902v-0.01h-0.037c-4.999 -0.079 -8.918 -1.411 -11.722 -3.806 -2.914 -2.49 -4.549 -6.035 -4.876 -10.44a2.268 2.268 0 0 1 -0.022 -0.319V4.706H13.801c-2.499 0 -4.773 1.024 -6.422 2.673 -1.649 1.649 -2.673 3.923 -2.673 6.422v76.707c0 2.498 1.025 4.771 2.675 6.42 1.65 1.651 3.925 2.676 6.421 2.676h27.381a33.56 33.56 0 0 0 1.84 4.706H13.801c-3.794 0 -7.247 -1.553 -9.748 -4.055C1.554 97.755 0 94.304 0 90.508V13.801C0 10.003 1.552 6.552 4.052 4.052 6.552 1.551 10.003 0 13.801 0m59.728 63.248c7.309 0 13.927 2.963 18.718 7.753C97.037 75.792 100 82.41 100 89.719c0 7.31 -2.963 13.927 -7.753 18.717 -4.79 4.79 -11.408 7.754 -18.718 7.754 -7.309 0 -13.927 -2.963 -18.717 -7.754 -4.79 -4.79 -7.754 -11.409 -7.754 -18.717s2.963 -13.927 7.754 -18.717c4.79 -4.79 11.408 -7.753 18.717 -7.753m2.157 15.04c-0.038 -0.916 -0.342 -1.566 -0.913 -1.94 -1.528 -1.019 -3.035 0.373 -4.098 1.337l-10.46 10.288c-1.093 1.11 -1.107 2.394 0 3.503l10.747 10.535c1.017 0.904 2.403 2.021 3.811 1.08 0.571 -0.382 0.876 -1.027 0.913 -1.943V96.075h7.883c1.5 0 2.748 -1.236 2.748 -2.748v-7.211c0 -1.515 -1.236 -2.751 -2.748 -2.751h-7.883zm-21.324 -71.49v13.703c0.232 3.115 1.32 5.564 3.243 7.207 1.966 1.679 4.873 2.618 8.707 2.684v-0.009h9.851z" />
        <path fill="#88BCF4"
            d="M23.306 80.473c-1.299 0 -2.352 -1.053 -2.352 -2.352s1.053 -2.352 2.352 -2.352h19.403a33.56 33.56 0 0 0 -1.723 4.704zm0 -32.964c-1.299 0 -2.352 -1.053 -2.352 -2.352s1.053 -2.352 2.352 -2.352h34.306c1.299 0 2.352 1.053 2.352 2.352s-1.054 2.352 -2.352 2.352zm0 16.481c-1.299 0 -2.352 -1.054 -2.352 -2.352 0 -1.299 1.053 -2.352 2.352 -2.352h32.488c0.641 0 1.223 0.257 1.647 0.674a33.9 33.9 0 0 0 -5.868 4.03z" />
    </g>
</svg>