<svg width="21" height="20" viewBox="0 0 21 20" fill="none" xmlns="http://www.w3.org/2000/svg">
<g id="XMLID_7_">
<path id="XMLID_8_" d="M17.8204 8.39287C17.8445 5.57308 15.4428 2.98806 12.4668 2.6306C12.4076 2.62359 12.3431 2.6129 12.2749 2.6016C12.1276 2.57719 11.9752 2.55209 11.8215 2.55209C11.2115 2.55209 11.0485 2.98055 11.0055 3.23608C10.9638 3.48453 11.0036 3.69317 11.1237 3.85646C11.3257 4.13113 11.6811 4.17988 11.9666 4.21895C12.0502 4.23051 12.1292 4.24125 12.1953 4.2561C14.8691 4.85356 15.7694 5.79289 16.2094 8.44399C16.2202 8.50878 16.225 8.58859 16.2302 8.67325C16.2494 8.99015 16.2894 9.64948 16.9982 9.64948H16.9983C17.0573 9.64948 17.1207 9.64439 17.1867 9.63432C17.8468 9.53401 17.8261 8.93133 17.8162 8.64176C17.8134 8.56021 17.8107 8.48306 17.8176 8.43176C17.8194 8.41884 17.8204 8.40586 17.8204 8.39287Z" fill="#5EF4EB"/>
<path id="XMLID_9_" d="M11.6483 1.59555C11.7275 1.60127 11.8025 1.60673 11.8649 1.6163C16.2556 2.29153 18.2748 4.37181 18.8344 8.79685C18.8439 8.87207 18.8454 8.96381 18.8469 9.06096C18.8525 9.40668 18.864 10.1259 19.6364 10.1408L19.6604 10.141C19.9026 10.141 20.0953 10.068 20.2331 9.92377C20.4735 9.67227 20.4568 9.29866 20.4432 8.99841C20.4399 8.92474 20.4368 8.85537 20.4376 8.79462C20.4934 4.26895 16.576 0.165096 12.0543 0.0124847C12.0356 0.0118636 12.0177 0.0128574 11.9996 0.015404C11.9907 0.0167084 11.9743 0.0183233 11.9461 0.0183233C11.901 0.0183233 11.8455 0.0144102 11.7867 0.010435C11.7156 0.00559016 11.6349 0 11.5532 0C10.8331 0 10.6962 0.51181 10.6787 0.816908C10.6383 1.52201 11.3205 1.57164 11.6483 1.59555Z" fill="#5EF4EB"/>
<path id="XMLID_10_" d="M18.6226 14.516C18.5292 14.4446 18.4327 14.3709 18.3423 14.2981C17.8629 13.9123 17.3529 13.5567 16.8597 13.2128C16.7573 13.1415 16.655 13.0701 16.553 12.9985C15.9212 12.5547 15.3531 12.3391 14.8165 12.3391C14.0937 12.3391 13.4635 12.7385 12.9433 13.526C12.7129 13.8751 12.4333 14.0449 12.0888 14.0449C11.8851 14.0449 11.6536 13.9868 11.4008 13.872C9.36148 12.9472 7.90525 11.5293 7.0725 9.65767C6.66995 8.75306 6.80044 8.16175 7.5089 7.6805C7.91121 7.40745 8.66004 6.89912 8.607 5.92568C8.54693 4.82026 6.10789 1.49418 5.08023 1.11641C4.64513 0.956409 4.18798 0.954918 3.71903 1.11268C2.53764 1.50983 1.68986 2.2073 1.26712 3.12955C0.858606 4.02068 0.877053 5.06704 1.32048 6.1555C2.60236 9.30251 4.40463 12.0463 6.6774 14.3105C8.90203 16.5269 11.6363 18.3425 14.8042 19.7065C15.0897 19.8294 15.3892 19.8964 15.6079 19.9453C15.6825 19.9621 15.7468 19.9764 15.7937 19.9892C15.8195 19.9962 15.8461 20 15.8727 20.0003L15.8977 20.0004C15.8977 20.0004 15.8977 20.0004 15.8979 20.0004C17.3878 20.0004 19.1769 18.6389 19.7263 17.0867C20.2077 15.7275 19.3288 15.0557 18.6226 14.516Z" fill="#5EF4EB"/>
<path id="XMLID_11_" d="M12.3074 5.19039C12.0523 5.19685 11.5214 5.21002 11.3351 5.75071C11.248 6.00339 11.2584 6.22277 11.3662 6.40277C11.5243 6.66688 11.8273 6.74781 12.1029 6.79222C13.1024 6.9526 13.6157 7.50528 13.7183 8.53138C13.766 9.00984 14.0882 9.34394 14.5019 9.34394C14.5324 9.34394 14.5638 9.34214 14.5949 9.33835C15.0924 9.27916 15.3336 8.91362 15.3118 8.252C15.3197 7.56149 14.9584 6.77756 14.3437 6.15314C13.727 5.5268 12.9836 5.17406 12.3074 5.19039Z" fill="#5EF4EB"/>
</g>
</svg>
