<svg xmlns="http://www.w3.org/2000/svg" class="ionicon" viewBox="0 0 40 40" width="40" height="40">
    <path
        d="M35.234 29.219c-1.241 -1.25 -4.245 -3.074 -5.703 -3.809 -1.898 -0.956 -2.055 -1.034 -3.547 0.074 -0.995 0.74 -1.657 1.401 -2.822 1.152s-3.696 -1.649 -5.913 -3.859 -3.698 -4.814 -3.948 -5.975 0.423 -1.815 1.155 -2.813c1.033 -1.406 0.955 -1.641 0.072 -3.539 -0.688 -1.477 -2.566 -4.453 -3.82 -5.688C9.367 3.438 9.367 3.672 8.502 4.031A12.5 12.5 0 0 0 6.484 5.107C5.234 5.938 4.541 6.627 4.055 7.664s-0.703 3.467 1.802 8.019 4.263 6.879 7.902 10.507S20.195 31.769 24.285 34.063c5.059 2.834 7 2.281 8.04 1.797s1.733 -1.172 2.565 -2.422a12.422 12.422 0 0 0 1.078 -2.016C36.328 30.56 36.563 30.56 35.234 29.219z"
        fill="none" stroke="white" stroke-miterlimit="10" stroke-width="2.5" />
</svg>